v -155.0 0.0 -3.0732
v -155.0 0.0 -1.0976
v -153.0 0.5853 -1.0976
v -155.0 0.0 -3.0732
v -153.0 0.5853 -1.0976
v -153.0 0.0 -3.0732
v -155.0 0.0 -1.0976
v -153.0 1.9537 0.878
v -153.0 0.5853 -1.0976
v -155.0 0.0 8.7805
v -155.0 0.0 10.7561
v -153.0 0.8533 10.7561
v -155.0 0.0 10.7561
v -155.0 0.0 12.7317
v -153.0 1.3718 12.7317
v -155.0 0.0 10.7561
v -153.0 1.3718 12.7317
v -153.0 0.8533 10.7561
v -155.0 0.0 24.5854
v -155.0 0.0 26.561
v -153.0 1.6257 26.561
v -155.0 0.0 24.5854
v -153.0 1.6257 26.561
v -153.0 0.0 24.5854
v -155.0 0.0 34.4634
v -155.0 0.0 36.439
v -153.0 1.2071 36.439
v -155.0 0.0 36.439
v -155.0 0.0 38.4146
v -153.0 1.0702 38.4146
v -155.0 0.0 36.439
v -153.0 1.0702 38.4146
v -153.0 1.2071 36.439
v -155.0 0.0 38.4146
v -153.0 2.0346 40.3902
v -153.0 1.0702 38.4146
v -155.0 0.0 48.2927
v -155.0 0.0 50.2683
v -153.0 0.3587 50.2683
v -155.0 0.0 50.2683
v -155.0 0.0 52.2439
v -153.0 0.8915 52.2439
v -155.0 0.0 50.2683
v -153.0 0.8915 52.2439
v -153.0 0.3587 50.2683
v -155.0 0.0 52.2439
v -153.0 1.9535 54.2195
v -153.0 0.8915 52.2439
v -155.0 0.0 60.1463
v -155.0 0.0 62.122
v -153.0 1.6507 62.122
v -155.0 0.0 62.122
v -155.0 0.0 64.0976
v -153.0 0.5203 64.0976
v -155.0 0.0 64.0976
v -153.0 0.0 66.0732
v -153.0 0.5203 64.0976
v -153.0 0.0 -7.0244
v -153.0 0.0 -5.0488
v -151.0 0.9084 -5.0488
v -153.0 0.0 -7.0244
v -151.0 0.9084 -5.0488
v -151.0 0.0 -7.0244
v -153.0 0.0 66.0732
v -153.0 0.0 68.0488
v -151.0 0.8771 68.0488
v -153.0 0.0 68.0488
v -151.0 0.0 70.0244
v -151.0 0.8771 68.0488
v -151.0 0.0 -9.0
v -151.0 0.0 -7.0244
v -149.0 1.2653 -7.0244
v -151.0 0.0 -9.0
v -149.0 1.2653 -7.0244
v -149.0 0.0 -9.0
v -151.0 4.0299 -1.0976
v -151.0 4.6799 0.878
v -149.0 5.9146 0.878
v -151.0 4.0299 -1.0976
v -149.0 5.9146 0.878
v -149.0 5.5034 -1.0976
v -151.0 4.6799 0.878
v -151.0 4.9209 2.8537
v -149.0 6.1377 2.8537
v -151.0 4.6799 0.878
v -149.0 6.1377 2.8537
v -149.0 5.9146 0.878
v -151.0 4.9209 2.8537
v -151.0 4.8872 4.8293
v -149.0 6.2927 4.8293
v -151.0 4.9209 2.8537
v -149.0 6.2927 4.8293
v -149.0 6.1377 2.8537
v -151.0 4.8872 4.8293
v -149.0 6.3788 6.8049
v -149.0 6.2927 4.8293
v -151.0 5.6022 14.7073
v -151.0 5.9369 16.6829
v -149.0 7.3476 16.6829
v -151.0 5.9369 16.6829
v -151.0 5.8226 18.6585
v -149.0 7.1333 18.6585
v -151.0 5.9369 16.6829
v -149.0 7.1333 18.6585
v -149.0 7.3476 16.6829
v -151.0 5.8226 18.6585
v -151.0 5.3633 20.6341
v -149.0 6.8086 20.6341
v -151.0 5.8226 18.6585
v -149.0 6.8086 20.6341
v -149.0 7.1333 18.6585
v -151.0 5.3633 20.6341
v -149.0 6.4216 22.6098
v -149.0 6.8086 20.6341
v -151.0 5.2895 30.5122
v -151.0 5.289 32.4878
v -149.0 6.6708 32.4878
v -151.0 5.289 32.4878
v -151.0 4.8794 34.4634
v -149.0 6.1105 34.4634
v -151.0 5.289 32.4878
v -149.0 6.1105 34.4634
v -149.0 6.6708 32.4878
v -151.0 4.8794 34.4634
v -151.0 4.1114 36.439
v -149.0 5.4055 36.439
v -151.0 4.8794 34.4634
v -149.0 5.4055 36.439
v -149.0 6.1105 34.4634
v -151.0 4.1114 36.439
v -151.0 3.902 38.4146
v -149.0 5.3407 38.4146
v -151.0 4.1114 36.439
v -149.0 5.3407 38.4146
v -149.0 5.4055 36.439
v -151.0 3.902 38.4146
v -149.0 6.0341 40.3902
v -149.0 5.3407 38.4146
v -151.0 5.0216 46.3171
v -151.0 4.7005 48.2927
v -149.0 6.2718 48.2927
v -151.0 4.7005 48.2927
v -151.0 3.942 50.2683
v -149.0 5.3893 50.2683
v -151.0 3.942 50.2683
v -151.0 3.821 52.2439
v -149.0 5.0429 52.2439
v -151.0 3.942 50.2683
v -149.0 5.0429 52.2439
v -149.0 5.3893 50.2683
v -151.0 3.821 52.2439
v -151.0 4.2768 54.2195
v -149.0 5.4714 54.2195
v -151.0 3.821 52.2439
v -149.0 5.4714 54.2195
v -149.0 5.0429 52.2439
v -151.0 4.2768 54.2195
v -151.0 4.4609 56.1951
v -149.0 5.8336 56.1951
v -151.0 4.2768 54.2195
v -149.0 5.8336 56.1951
v -149.0 5.4714 54.2195
v -151.0 4.4609 56.1951
v -151.0 4.5058 58.1707
v -149.0 6.1245 58.1707
v -151.0 4.4609 56.1951
v -149.0 6.1245 58.1707
v -149.0 5.8336 56.1951
v -151.0 4.5058 58.1707
v -149.0 6.2273 60.1463
v -149.0 6.1245 58.1707
v -151.0 0.8771 68.0488
v -151.0 0.0 70.0244
v -149.0 1.0904 70.0244
v -151.0 0.0 70.0244
v -149.0 0.0 72.0
v -149.0 1.0904 70.0244
v -149.0 3.4283 -5.0488
v -149.0 4.7291 -3.0732
v -147.0 5.3913 -3.0732
v -149.0 3.4283 -5.0488
v -147.0 5.3913 -3.0732
v -147.0 4.3998 -5.0488
v -149.0 4.7291 -3.0732
v -149.0 5.5034 -1.0976
v -147.0 6.0661 -1.0976
v -149.0 4.7291 -3.0732
v -147.0 6.0661 -1.0976
v -147.0 5.3913 -3.0732
v -149.0 5.5034 -1.0976
v -149.0 5.9146 0.878
v -147.0 6.6335 0.878
v -149.0 5.5034 -1.0976
v -147.0 6.6335 0.878
v -147.0 6.0661 -1.0976
v -149.0 5.9146 0.878
v -149.0 6.1377 2.8537
v -147.0 7.1804 2.8537
v -149.0 5.9146 0.878
v -147.0 7.1804 2.8537
v -147.0 6.6335 0.878
v -149.0 6.1377 2.8537
v -149.0 6.2927 4.8293
v -147.0 7.624 4.8293
v -149.0 6.1377 2.8537
v -147.0 7.624 4.8293
v -147.0 7.1804 2.8537
v -149.0 6.2927 4.8293
v -149.0 6.3788 6.8049
v -147.0 7.7731 6.8049
v -149.0 6.2927 4.8293
v -147.0 7.7731 6.8049
v -147.0 7.624 4.8293
v -149.0 6.3788 6.8049
v -149.0 6.28 8.7805
v -147.0 7.4911 8.7805
v -149.0 6.3788 6.8049
v -147.0 7.4911 8.7805
v -147.0 7.7731 6.8049
v -149.0 6.28 8.7805
v -149.0 5.8427 10.7561
v -147.0 6.8965 10.7561
v -149.0 6.28 8.7805
v -147.0 6.8965 10.7561
v -147.0 7.4911 8.7805
v -149.0 5.8427 10.7561
v -149.0 6.8126 12.7317
v -147.0 7.5545 12.7317
v -149.0 5.8427 10.7561
v -147.0 7.5545 12.7317
v -147.0 6.8965 10.7561
v -149.0 6.8126 12.7317
v -149.0 7.2936 14.7073
v -147.0 7.867 14.7073
v -149.0 6.8126 12.7317
v -147.0 7.867 14.7073
v -147.0 7.5545 12.7317
v -149.0 7.2936 14.7073
v -149.0 7.3476 16.6829
v -147.0 8.0177 16.6829
v -149.0 7.2936 14.7073
v -147.0 8.0177 16.6829
v -147.0 7.867 14.7073
v -149.0 7.3476 16.6829
v -149.0 7.1333 18.6585
v -147.0 8.1078 18.6585
v -149.0 7.3476 16.6829
v -147.0 8.1078 18.6585
v -147.0 8.0177 16.6829
v -149.0 7.1333 18.6585
v -149.0 6.8086 20.6341
v -147.0 8.1079 20.6341
v -149.0 7.1333 18.6585
v -147.0 8.1079 20.6341
v -147.0 8.1078 18.6585
v -149.0 6.8086 20.6341
v -149.0 6.4216 22.6098
v -147.0 7.8898 22.6098
v -149.0 6.8086 20.6341
v -147.0 7.8898 22.6098
v -147.0 8.1079 20.6341
v -149.0 6.4216 22.6098
v -149.0 5.8679 24.5854
v -147.0 7.284 24.5854
v -149.0 6.4216 22.6098
v -147.0 7.284 24.5854
v -147.0 7.8898 22.6098
v -149.0 5.8679 24.5854
v -149.0 6.1928 26.561
v -147.0 7.2911 26.561
v -149.0 5.8679 24.5854
v -147.0 7.2911 26.561
v -147.0 7.284 24.5854
v -149.0 6.1928 26.561
v -149.0 6.777 28.5366
v -147.0 7.5964 28.5366
v -149.0 6.1928 26.561
v -147.0 7.5964 28.5366
v -147.0 7.2911 26.561
v -149.0 6.777 28.5366
v -149.0 6.9345 30.5122
v -147.0 7.5163 30.5122
v -149.0 6.777 28.5366
v -147.0 7.5163 30.5122
v -147.0 7.5964 28.5366
v -149.0 6.9345 30.5122
v -149.0 6.6708 32.4878
v -147.0 7.1904 32.4878
v -149.0 6.9345 30.5122
v -147.0 7.1904 32.4878
v -147.0 7.5163 30.5122
v -149.0 6.6708 32.4878
v -149.0 6.1105 34.4634
v -147.0 6.7825 34.4634
v -149.0 6.6708 32.4878
v -147.0 6.7825 34.4634
v -147.0 7.1904 32.4878
v -149.0 6.1105 34.4634
v -149.0 5.4055 36.439
v -147.0 6.3491 36.439
v -149.0 6.1105 34.4634
v -147.0 6.3491 36.439
v -147.0 6.7825 34.4634
v -149.0 5.4055 36.439
v -149.0 5.3407 38.4146
v -147.0 6.5348 38.4146
v -149.0 5.4055 36.439
v -147.0 6.5348 38.4146
v -147.0 6.3491 36.439
v -149.0 5.3407 38.4146
v -149.0 6.0341 40.3902
v -147.0 7.3871 40.3902
v -149.0 5.3407 38.4146
v -147.0 7.3871 40.3902
v -147.0 6.5348 38.4146
v -149.0 6.0341 40.3902
v -149.0 6.6052 42.3659
v -147.0 7.9018 42.3659
v -149.0 6.0341 40.3902
v -147.0 7.9018 42.3659
v -147.0 7.3871 40.3902
v -149.0 6.6052 42.3659
v -149.0 6.9093 44.3415
v -147.0 7.9396 44.3415
v -149.0 6.6052 42.3659
v -147.0 7.9396 44.3415
v -147.0 7.9018 42.3659
v -149.0 6.9093 44.3415
v -149.0 6.808 46.3171
v -147.0 7.512 46.3171
v -149.0 6.9093 44.3415
v -147.0 7.512 46.3171
v -147.0 7.9396 44.3415
v -149.0 6.808 46.3171
v -149.0 6.2718 48.2927
v -147.0 6.797 48.2927
v -149.0 6.808 46.3171
v -147.0 6.797 48.2927
v -147.0 7.512 46.3171
v -149.0 6.2718 48.2927
v -149.0 5.3893 50.2683
v -147.0 5.9784 50.2683
v -149.0 6.2718 48.2927
v -147.0 5.9784 50.2683
v -147.0 6.797 48.2927
v -149.0 5.3893 50.2683
v -149.0 5.0429 52.2439
v -147.0 5.7735 52.2439
v -149.0 5.3893 50.2683
v -147.0 5.7735 52.2439
v -147.0 5.9784 50.2683
v -149.0 5.0429 52.2439
v -149.0 5.4714 54.2195
v -147.0 6.4834 54.2195
v -149.0 5.0429 52.2439
v -147.0 6.4834 54.2195
v -147.0 5.7735 52.2439
v -149.0 5.4714 54.2195
v -149.0 5.8336 56.1951
v -147.0 7.098 56.1951
v -149.0 5.4714 54.2195
v -147.0 7.098 56.1951
v -147.0 6.4834 54.2195
v -149.0 5.8336 56.1951
v -149.0 6.1245 58.1707
v -147.0 7.4381 58.1707
v -149.0 5.8336 56.1951
v -147.0 7.4381 58.1707
v -147.0 7.098 56.1951
v -149.0 6.1245 58.1707
v -149.0 6.2273 60.1463
v -147.0 7.3431 60.1463
v -149.0 6.1245 58.1707
v -147.0 7.3431 60.1463
v -147.0 7.4381 58.1707
v -149.0 6.2273 60.1463
v -149.0 6.0002 62.122
v -147.0 6.81 62.122
v -149.0 6.2273 60.1463
v -147.0 6.81 62.122
v -147.0 7.3431 60.1463
v -149.0 6.0002 62.122
v -149.0 5.3682 64.0976
v -147.0 5.962 64.0976
v -149.0 6.0002 62.122
v -147.0 5.962 64.0976
v -147.0 6.81 62.122
v -149.0 5.3682 64.0976
v -149.0 4.3533 66.0732
v -147.0 4.9449 66.0732
v -149.0 5.3682 64.0976
v -147.0 4.9449 66.0732
v -147.0 5.962 64.0976
v -149.0 4.3533 66.0732
v -149.0 3.0037 68.0488
v -147.0 3.8111 68.0488
v -149.0 4.3533 66.0732
v -147.0 3.8111 68.0488
v -147.0 4.9449 66.0732
v -149.0 3.0037 68.0488
v -147.0 2.387 70.0244
v -147.0 3.8111 68.0488
v -149.0 1.0904 70.0244
v -149.0 0.0 72.0
v -147.0 0.0 72.0
v -147.0 2.798 -7.0244
v -147.0 4.3998 -5.0488
v -145.0 4.4481 -5.0488
v -147.0 2.798 -7.0244
v -145.0 4.4481 -5.0488
v -145.0 3.0495 -7.0244
v -147.0 4.3998 -5.0488
v -147.0 5.3913 -3.0732
v -145.0 5.4699 -3.0732
v -147.0 4.3998 -5.0488
v -145.0 5.4699 -3.0732
v -145.0 4.4481 -5.0488
v -147.0 5.3913 -3.0732
v -147.0 6.0661 -1.0976
v -145.0 6.3878 -1.0976
v -147.0 5.3913 -3.0732
v -145.0 6.3878 -1.0976
v -145.0 5.4699 -3.0732
v -147.0 6.0661 -1.0976
v -147.0 6.6335 0.878
v -145.0 7.2699 0.878
v -147.0 6.0661 -1.0976
v -145.0 7.2699 0.878
v -145.0 6.3878 -1.0976
v -147.0 6.6335 0.878
v -147.0 7.1804 2.8537
v -145.0 8.0151 2.8537
v -147.0 6.6335 0.878
v -145.0 8.0151 2.8537
v -145.0 7.2699 0.878
v -147.0 7.1804 2.8537
v -147.0 7.624 4.8293
v -145.0 8.4211 4.8293
v -147.0 7.1804 2.8537
v -145.0 8.4211 4.8293
v -145.0 8.0151 2.8537
v -147.0 7.624 4.8293
v -147.0 7.7731 6.8049
v -145.0 8.2254 6.8049
v -147.0 7.624 4.8293
v -145.0 8.2254 6.8049
v -145.0 8.4211 4.8293
v -147.0 7.7731 6.8049
v -147.0 7.4911 8.7805
v -145.0 7.5781 8.7805
v -147.0 7.7731 6.8049
v -145.0 7.5781 8.7805
v -145.0 8.2254 6.8049
v -147.0 7.4911 8.7805
v -147.0 6.8965 10.7561
v -145.0 6.8303 10.7561
v -147.0 7.4911 8.7805
v -145.0 6.8303 10.7561
v -145.0 7.5781 8.7805
v -147.0 6.8965 10.7561
v -147.0 7.5545 12.7317
v -145.0 7.4674 12.7317
v -147.0 6.8965 10.7561
v -145.0 7.4674 12.7317
v -145.0 6.8303 10.7561
v -147.0 7.5545 12.7317
v -147.0 7.867 14.7073
v -145.0 8.0394 14.7073
v -147.0 7.5545 12.7317
v -145.0 8.0394 14.7073
v -145.0 7.4674 12.7317
v -147.0 7.867 14.7073
v -147.0 8.0177 16.6829
v -145.0 8.6199 16.6829
v -147.0 7.867 14.7073
v -145.0 8.6199 16.6829
v -145.0 8.0394 14.7073
v -147.0 8.0177 16.6829
v -147.0 8.1078 18.6585
v -145.0 9.034 18.6585
v -147.0 8.0177 16.6829
v -145.0 9.034 18.6585
v -145.0 8.6199 16.6829
v -147.0 8.1078 18.6585
v -147.0 8.1079 20.6341
v -145.0 9.0172 20.6341
v -147.0 8.1078 18.6585
v -145.0 9.0172 20.6341
v -145.0 9.034 18.6585
v -147.0 8.1079 20.6341
v -147.0 7.8898 22.6098
v -145.0 8.5345 22.6098
v -147.0 8.1079 20.6341
v -145.0 8.5345 22.6098
v -145.0 9.0172 20.6341
v -147.0 7.8898 22.6098
v -147.0 7.284 24.5854
v -145.0 7.5776 24.5854
v -147.0 7.8898 22.6098
v -145.0 7.5776 24.5854
v -145.0 8.5345 22.6098
v -147.0 7.284 24.5854
v -147.0 7.2911 26.561
v -145.0 7.2754 26.561
v -147.0 7.284 24.5854
v -145.0 7.2754 26.561
v -145.0 7.5776 24.5854
v -147.0 7.2911 26.561
v -147.0 7.5964 28.5366
v -145.0 7.4697 28.5366
v -147.0 7.2911 26.561
v -145.0 7.4697 28.5366
v -145.0 7.2754 26.561
v -147.0 7.5964 28.5366
v -147.0 7.5163 30.5122
v -145.0 7.5517 30.5122
v -147.0 7.5964 28.5366
v -145.0 7.5517 30.5122
v -145.0 7.4697 28.5366
v -147.0 7.5163 30.5122
v -147.0 7.1904 32.4878
v -145.0 7.5124 32.4878
v -147.0 7.5163 30.5122
v -145.0 7.5124 32.4878
v -145.0 7.5517 30.5122
v -147.0 7.1904 32.4878
v -147.0 6.7825 34.4634
v -145.0 7.3857 34.4634
v -147.0 7.1904 32.4878
v -145.0 7.3857 34.4634
v -145.0 7.5124 32.4878
v -147.0 6.7825 34.4634
v -147.0 6.3491 36.439
v -145.0 7.0763 36.439
v -147.0 6.7825 34.4634
v -145.0 7.0763 36.439
v -145.0 7.3857 34.4634
v -147.0 6.3491 36.439
v -147.0 6.5348 38.4146
v -145.0 7.2117 38.4146
v -147.0 6.3491 36.439
v -145.0 7.2117 38.4146
v -145.0 7.0763 36.439
v -147.0 6.5348 38.4146
v -147.0 7.3871 40.3902
v -145.0 7.8612 40.3902
v -147.0 6.5348 38.4146
v -145.0 7.8612 40.3902
v -145.0 7.2117 38.4146
v -147.0 7.3871 40.3902
v -147.0 7.9018 42.3659
v -145.0 8.0786 42.3659
v -147.0 7.3871 40.3902
v -145.0 8.0786 42.3659
v -145.0 7.8612 40.3902
v -147.0 7.9018 42.3659
v -147.0 7.9396 44.3415
v -145.0 7.8977 44.3415
v -147.0 7.9018 42.3659
v -145.0 7.8977 44.3415
v -145.0 8.0786 42.3659
v -147.0 7.9396 44.3415
v -147.0 7.512 46.3171
v -145.0 7.4082 46.3171
v -147.0 7.9396 44.3415
v -145.0 7.4082 46.3171
v -145.0 7.8977 44.3415
v -147.0 7.512 46.3171
v -147.0 6.797 48.2927
v -145.0 6.8871 48.2927
v -147.0 7.512 46.3171
v -145.0 6.8871 48.2927
v -145.0 7.4082 46.3171
v -147.0 6.797 48.2927
v -147.0 5.9784 50.2683
v -145.0 6.3623 50.2683
v -147.0 6.797 48.2927
v -145.0 6.3623 50.2683
v -145.0 6.8871 48.2927
v -147.0 5.9784 50.2683
v -147.0 5.7735 52.2439
v -145.0 6.3761 52.2439
v -147.0 5.9784 50.2683
v -145.0 6.3761 52.2439
v -145.0 6.3623 50.2683
v -147.0 5.7735 52.2439
v -147.0 6.4834 54.2195
v -145.0 7.2174 54.2195
v -147.0 5.7735 52.2439
v -145.0 7.2174 54.2195
v -145.0 6.3761 52.2439
v -147.0 6.4834 54.2195
v -147.0 7.098 56.1951
v -145.0 7.751 56.1951
v -147.0 6.4834 54.2195
v -145.0 7.751 56.1951
v -145.0 7.2174 54.2195
v -147.0 7.098 56.1951
v -147.0 7.4381 58.1707
v -145.0 7.8335 58.1707
v -147.0 7.098 56.1951
v -145.0 7.8335 58.1707
v -145.0 7.751 56.1951
v -147.0 7.4381 58.1707
v -147.0 7.3431 60.1463
v -145.0 7.3859 60.1463
v -147.0 7.4381 58.1707
v -145.0 7.3859 60.1463
v -145.0 7.8335 58.1707
v -147.0 7.3431 60.1463
v -147.0 6.81 62.122
v -145.0 6.6918 62.122
v -147.0 7.3431 60.1463
v -145.0 6.6918 62.122
v -145.0 7.3859 60.1463
v -147.0 6.81 62.122
v -147.0 5.962 64.0976
v -145.0 5.9309 64.0976
v -147.0 6.81 62.122
v -145.0 5.9309 64.0976
v -145.0 6.6918 62.122
v -147.0 5.962 64.0976
v -147.0 4.9449 66.0732
v -145.0 5.1512 66.0732
v -147.0 5.962 64.0976
v -145.0 5.1512 66.0732
v -145.0 5.9309 64.0976
v -147.0 4.9449 66.0732
v -147.0 3.8111 68.0488
v -145.0 4.2376 68.0488
v -147.0 4.9449 66.0732
v -145.0 4.2376 68.0488
v -145.0 5.1512 66.0732
v -147.0 3.8111 68.0488
v -147.0 2.387 70.0244
v -145.0 2.9131 70.0244
v -147.0 3.8111 68.0488
v -145.0 2.9131 70.0244
v -145.0 4.2376 68.0488
v -145.0 3.0495 -7.0244
v -145.0 4.4481 -5.0488
v -143.0 4.0865 -5.0488
v -145.0 4.4481 -5.0488
v -145.0 5.4699 -3.0732
v -143.0 5.362 -3.0732
v -145.0 4.4481 -5.0488
v -143.0 5.362 -3.0732
v -143.0 4.0865 -5.0488
v -145.0 5.4699 -3.0732
v -145.0 6.3878 -1.0976
v -143.0 6.4792 -1.0976
v -145.0 5.4699 -3.0732
v -143.0 6.4792 -1.0976
v -143.0 5.362 -3.0732
v -145.0 6.3878 -1.0976
v -145.0 7.2699 0.878
v -143.0 7.3485 0.878
v -145.0 6.3878 -1.0976
v -143.0 7.3485 0.878
v -143.0 6.4792 -1.0976
v -145.0 7.2699 0.878
v -145.0 8.0151 2.8537
v -143.0 7.8262 2.8537
v -145.0 7.2699 0.878
v -143.0 7.8262 2.8537
v -143.0 7.3485 0.878
v -145.0 8.0151 2.8537
v -145.0 8.4211 4.8293
v -143.0 7.8327 4.8293
v -145.0 8.0151 2.8537
v -143.0 7.8327 4.8293
v -143.0 7.8262 2.8537
v -145.0 8.4211 4.8293
v -145.0 8.2254 6.8049
v -143.0 7.4292 6.8049
v -145.0 8.4211 4.8293
v -143.0 7.4292 6.8049
v -143.0 7.8327 4.8293
v -145.0 8.2254 6.8049
v -145.0 7.5781 8.7805
v -143.0 6.8094 8.7805
v -145.0 8.2254 6.8049
v -143.0 6.8094 8.7805
v -143.0 7.4292 6.8049
v -145.0 7.5781 8.7805
v -145.0 6.8303 10.7561
v -143.0 6.2548 10.7561
v -145.0 7.5781 8.7805
v -143.0 6.2548 10.7561
v -143.0 6.8094 8.7805
v -145.0 6.8303 10.7561
v -145.0 7.4674 12.7317
v -143.0 7.192 12.7317
v -145.0 6.8303 10.7561
v -143.0 7.192 12.7317
v -143.0 6.2548 10.7561
v -145.0 7.4674 12.7317
v -145.0 8.0394 14.7073
v -143.0 8.0695 14.7073
v -145.0 7.4674 12.7317
v -143.0 8.0695 14.7073
v -143.0 7.192 12.7317
v -145.0 8.0394 14.7073
v -145.0 8.6199 16.6829
v -143.0 8.7419 16.6829
v -145.0 8.0394 14.7073
v -143.0 8.7419 16.6829
v -143.0 8.0695 14.7073
v -145.0 8.6199 16.6829
v -145.0 9.034 18.6585
v -143.0 8.9801 18.6585
v -145.0 8.6199 16.6829
v -143.0 8.9801 18.6585
v -143.0 8.7419 16.6829
v -145.0 9.034 18.6585
v -145.0 9.0172 20.6341
v -143.0 8.6611 20.6341
v -145.0 9.034 18.6585
v -143.0 8.6611 20.6341
v -143.0 8.9801 18.6585
v -145.0 9.0172 20.6341
v -145.0 8.5345 22.6098
v -143.0 7.8688 22.6098
v -145.0 9.0172 20.6341
v -143.0 7.8688 22.6098
v -143.0 8.6611 20.6341
v -145.0 8.5345 22.6098
v -145.0 7.5776 24.5854
v -143.0 6.7914 24.5854
v -145.0 8.5345 22.6098
v -143.0 6.7914 24.5854
v -143.0 7.8688 22.6098
v -145.0 7.5776 24.5854
v -145.0 7.2754 26.561
v -143.0 6.5783 26.561
v -145.0 7.5776 24.5854
v -143.0 6.5783 26.561
v -143.0 6.7914 24.5854
v -145.0 7.2754 26.561
v -145.0 7.4697 28.5366
v -143.0 6.989 28.5366
v -145.0 7.2754 26.561
v -143.0 6.989 28.5366
v -143.0 6.5783 26.561
v -145.0 7.4697 28.5366
v -145.0 7.5517 30.5122
v -143.0 7.3672 30.5122
v -145.0 7.4697 28.5366
v -143.0 7.3672 30.5122
v -143.0 6.989 28.5366
v -145.0 7.5517 30.5122
v -145.0 7.5124 32.4878
v -143.0 7.589 32.4878
v -145.0 7.5517 30.5122
v -143.0 7.589 32.4878
v -143.0 7.3672 30.5122
v -145.0 7.5124 32.4878
v -145.0 7.3857 34.4634
v -143.0 7.4907 34.4634
v -145.0 7.5124 32.4878
v -143.0 7.4907 34.4634
v -143.0 7.589 32.4878
v -145.0 7.3857 34.4634
v -145.0 7.0763 36.439
v -143.0 6.9693 36.439
v -145.0 7.3857 34.4634
v -143.0 6.9693 36.439
v -143.0 7.4907 34.4634
v -145.0 7.0763 36.439
v -145.0 7.2117 38.4146
v -143.0 6.8042 38.4146
v -145.0 7.0763 36.439
v -143.0 6.8042 38.4146
v -143.0 6.9693 36.439
v -145.0 7.2117 38.4146
v -145.0 7.8612 40.3902
v -143.0 7.1538 40.3902
v -145.0 7.2117 38.4146
v -143.0 7.1538 40.3902
v -143.0 6.8042 38.4146
v -145.0 7.8612 40.3902
v -145.0 8.0786 42.3659
v -143.0 7.2291 42.3659
v -145.0 7.8612 40.3902
v -143.0 7.2291 42.3659
v -143.0 7.1538 40.3902
v -145.0 8.0786 42.3659
v -145.0 7.8977 44.3415
v -143.0 7.1735 44.3415
v -145.0 8.0786 42.3659
v -143.0 7.1735 44.3415
v -143.0 7.2291 42.3659
v -145.0 7.8977 44.3415
v -145.0 7.4082 46.3171
v -143.0 7.0635 46.3171
v -145.0 7.8977 44.3415
v -143.0 7.0635 46.3171
v -143.0 7.1735 44.3415
v -145.0 7.4082 46.3171
v -145.0 6.8871 48.2927
v -143.0 6.8718 48.2927
v -145.0 7.4082 46.3171
v -143.0 6.8718 48.2927
v -143.0 7.0635 46.3171
v -145.0 6.8871 48.2927
v -145.0 6.3623 50.2683
v -143.0 6.4609 50.2683
v -145.0 6.8871 48.2927
v -143.0 6.4609 50.2683
v -143.0 6.8718 48.2927
v -145.0 6.3623 50.2683
v -145.0 6.3761 52.2439
v -143.0 6.4024 52.2439
v -145.0 6.3623 50.2683
v -143.0 6.4024 52.2439
v -143.0 6.4609 50.2683
v -145.0 6.3761 52.2439
v -145.0 7.2174 54.2195
v -143.0 6.9975 54.2195
v -145.0 6.3761 52.2439
v -143.0 6.9975 54.2195
v -143.0 6.4024 52.2439
v -145.0 7.2174 54.2195
v -145.0 7.751 56.1951
v -143.0 7.1801 56.1951
v -145.0 7.2174 54.2195
v -143.0 7.1801 56.1951
v -143.0 6.9975 54.2195
v -145.0 7.751 56.1951
v -145.0 7.8335 58.1707
v -143.0 7.0126 58.1707
v -145.0 7.751 56.1951
v -143.0 7.0126 58.1707
v -143.0 7.1801 56.1951
v -145.0 7.8335 58.1707
v -145.0 7.3859 60.1463
v -143.0 6.6415 60.1463
v -145.0 7.8335 58.1707
v -143.0 6.6415 60.1463
v -143.0 7.0126 58.1707
v -145.0 7.3859 60.1463
v -145.0 6.6918 62.122
v -143.0 6.2168 62.122
v -145.0 7.3859 60.1463
v -143.0 6.2168 62.122
v -143.0 6.6415 60.1463
v -145.0 6.6918 62.122
v -145.0 5.9309 64.0976
v -143.0 5.7614 64.0976
v -145.0 6.6918 62.122
v -143.0 5.7614 64.0976
v -143.0 6.2168 62.122
v -145.0 5.9309 64.0976
v -145.0 5.1512 66.0732
v -143.0 5.1514 66.0732
v -145.0 5.9309 64.0976
v -143.0 5.1514 66.0732
v -143.0 5.7614 64.0976
v -145.0 5.1512 66.0732
v -145.0 4.2376 68.0488
v -143.0 4.1879 68.0488
v -145.0 5.1512 66.0732
v -143.0 4.1879 68.0488
v -143.0 5.1514 66.0732
v -145.0 4.2376 68.0488
v -145.0 2.9131 70.0244
v -143.0 2.6341 70.0244
v -145.0 4.2376 68.0488
v -143.0 2.6341 70.0244
v -143.0 4.1879 68.0488
v -143.0 0.0 -9.0
v -141.0 1.1789 -7.0244
v -141.0 0.0 -9.0
v -143.0 4.0865 -5.0488
v -143.0 5.362 -3.0732
v -141.0 4.7125 -3.0732
v -143.0 5.362 -3.0732
v -143.0 6.4792 -1.0976
v -141.0 5.7463 -1.0976
v -143.0 5.362 -3.0732
v -141.0 5.7463 -1.0976
v -141.0 4.7125 -3.0732
v -143.0 6.4792 -1.0976
v -143.0 7.3485 0.878
v -141.0 6.3412 0.878
v -143.0 6.4792 -1.0976
v -141.0 6.3412 0.878
v -141.0 5.7463 -1.0976
v -143.0 7.3485 0.878
v -143.0 7.8262 2.8537
v -141.0 6.5248 2.8537
v -143.0 7.3485 0.878
v -141.0 6.5248 2.8537
v -141.0 6.3412 0.878
v -143.0 7.8262 2.8537
v -143.0 7.8327 4.8293
v -141.0 6.4179 4.8293
v -143.0 7.8262 2.8537
v -141.0 6.4179 4.8293
v -141.0 6.5248 2.8537
v -143.0 7.8327 4.8293
v -143.0 7.4292 6.8049
v -141.0 6.1726 6.8049
v -143.0 7.8327 4.8293
v -141.0 6.1726 6.8049
v -141.0 6.4179 4.8293
v -143.0 7.4292 6.8049
v -143.0 6.8094 8.7805
v -141.0 5.8728 8.7805
v -143.0 7.4292 6.8049
v -141.0 5.8728 8.7805
v -141.0 6.1726 6.8049
v -143.0 6.8094 8.7805
v -143.0 6.2548 10.7561
v -141.0 5.4711 10.7561
v -143.0 6.8094 8.7805
v -141.0 5.4711 10.7561
v -141.0 5.8728 8.7805
v -143.0 6.2548 10.7561
v -143.0 7.192 12.7317
v -141.0 6.5977 12.7317
v -143.0 6.2548 10.7561
v -141.0 6.5977 12.7317
v -141.0 5.4711 10.7561
v -143.0 7.192 12.7317
v -143.0 8.0695 14.7073
v -141.0 7.4148 14.7073
v -143.0 7.192 12.7317
v -141.0 7.4148 14.7073
v -141.0 6.5977 12.7317
v -143.0 8.0695 14.7073
v -143.0 8.7419 16.6829
v -141.0 7.7818 16.6829
v -143.0 8.0695 14.7073
v -141.0 7.7818 16.6829
v -141.0 7.4148 14.7073
v -143.0 8.7419 16.6829
v -143.0 8.9801 18.6585
v -141.0 7.6565 18.6585
v -143.0 8.7419 16.6829
v -141.0 7.6565 18.6585
v -141.0 7.7818 16.6829
v -143.0 8.9801 18.6585
v -143.0 8.6611 20.6341
v -141.0 7.14 20.6341
v -143.0 8.9801 18.6585
v -141.0 7.14 20.6341
v -141.0 7.6565 18.6585
v -143.0 7.8688 22.6098
v -143.0 6.7914 24.5854
v -141.0 5.58 24.5854
v -143.0 6.7914 24.5854
v -143.0 6.5783 26.561
v -141.0 5.7682 26.561
v -143.0 6.7914 24.5854
v -141.0 5.7682 26.561
v -141.0 5.58 24.5854
v -143.0 6.5783 26.561
v -143.0 6.989 28.5366
v -141.0 6.4131 28.5366
v -143.0 6.5783 26.561
v -141.0 6.4131 28.5366
v -141.0 5.7682 26.561
v -143.0 6.989 28.5366
v -143.0 7.3672 30.5122
v -141.0 6.8451 30.5122
v -143.0 6.989 28.5366
v -141.0 6.8451 30.5122
v -141.0 6.4131 28.5366
v -143.0 7.3672 30.5122
v -143.0 7.589 32.4878
v -141.0 6.9098 32.4878
v -143.0 7.3672 30.5122
v -141.0 6.9098 32.4878
v -141.0 6.8451 30.5122
v -143.0 7.589 32.4878
v -143.0 7.4907 34.4634
v -141.0 6.534 34.4634
v -143.0 7.589 32.4878
v -141.0 6.534 34.4634
v -141.0 6.9098 32.4878
v -143.0 7.4907 34.4634
v -143.0 6.9693 36.439
v -141.0 5.7725 36.439
v -143.0 7.4907 34.4634
v -141.0 5.7725 36.439
v -141.0 6.534 34.4634
v -143.0 6.9693 36.439
v -143.0 6.8042 38.4146
v -141.0 5.4999 38.4146
v -143.0 6.9693 36.439
v -141.0 5.4999 38.4146
v -141.0 5.7725 36.439
v -143.0 6.8042 38.4146
v -143.0 7.1538 40.3902
v -141.0 5.8946 40.3902
v -143.0 6.8042 38.4146
v -141.0 5.8946 40.3902
v -141.0 5.4999 38.4146
v -143.0 7.1538 40.3902
v -143.0 7.2291 42.3659
v -141.0 6.2018 42.3659
v -143.0 7.1538 40.3902
v -141.0 6.2018 42.3659
v -141.0 5.8946 40.3902
v -143.0 7.2291 42.3659
v -143.0 7.1735 44.3415
v -141.0 6.4498 44.3415
v -143.0 7.2291 42.3659
v -141.0 6.4498 44.3415
v -141.0 6.2018 42.3659
v -143.0 7.1735 44.3415
v -143.0 7.0635 46.3171
v -141.0 6.5392 46.3171
v -143.0 7.1735 44.3415
v -141.0 6.5392 46.3171
v -141.0 6.4498 44.3415
v -143.0 7.0635 46.3171
v -143.0 6.8718 48.2927
v -141.0 6.3164 48.2927
v -143.0 7.0635 46.3171
v -141.0 6.3164 48.2927
v -141.0 6.5392 46.3171
v -143.0 6.8718 48.2927
v -143.0 6.4609 50.2683
v -141.0 5.6724 50.2683
v -143.0 6.8718 48.2927
v -141.0 5.6724 50.2683
v -141.0 6.3164 48.2927
v -143.0 6.4609 50.2683
v -143.0 6.4024 52.2439
v -141.0 5.4141 52.2439
v -143.0 6.4609 50.2683
v -141.0 5.4141 52.2439
v -141.0 5.6724 50.2683
v -143.0 6.4024 52.2439
v -143.0 6.9975 54.2195
v -141.0 5.7785 54.2195
v -143.0 6.4024 52.2439
v -141.0 5.7785 54.2195
v -141.0 5.4141 52.2439
v -143.0 6.9975 54.2195
v -143.0 7.1801 56.1951
v -141.0 5.8828 56.1951
v -143.0 6.9975 54.2195
v -141.0 5.8828 56.1951
v -141.0 5.7785 54.2195
v -143.0 7.1801 56.1951
v -143.0 7.0126 58.1707
v -141.0 5.8692 58.1707
v -143.0 7.1801 56.1951
v -141.0 5.8692 58.1707
v -141.0 5.8828 56.1951
v -143.0 7.0126 58.1707
v -143.0 6.6415 60.1463
v -141.0 5.8067 60.1463
v -143.0 7.0126 58.1707
v -141.0 5.8067 60.1463
v -141.0 5.8692 58.1707
v -143.0 6.6415 60.1463
v -143.0 6.2168 62.122
v -141.0 5.6463 62.122
v -143.0 6.6415 60.1463
v -141.0 5.6463 62.122
v -141.0 5.8067 60.1463
v -143.0 6.2168 62.122
v -143.0 5.7614 64.0976
v -141.0 5.2503 64.0976
v -143.0 6.2168 62.122
v -141.0 5.2503 64.0976
v -141.0 5.6463 62.122
v -143.0 5.7614 64.0976
v -143.0 5.1514 66.0732
v -141.0 4.4706 66.0732
v -143.0 5.7614 64.0976
v -141.0 4.4706 66.0732
v -141.0 5.2503 64.0976
v -143.0 5.1514 66.0732
v -143.0 4.1879 68.0488
v -141.0 3.1994 68.0488
v -143.0 5.1514 66.0732
v -141.0 3.1994 68.0488
v -141.0 4.4706 66.0732
v -141.0 1.1789 -7.0244
v -139.0 0.9428 -5.0488
v -139.0 0.0 -7.0244
v -141.0 6.5248 2.8537
v -141.0 6.4179 4.8293
v -139.0 4.8135 4.8293
v -141.0 6.4179 4.8293
v -141.0 6.1726 6.8049
v -139.0 4.8267 6.8049
v -141.0 6.4179 4.8293
v -139.0 4.8267 6.8049
v -139.0 4.8135 4.8293
v -141.0 6.1726 6.8049
v -141.0 5.8728 8.7805
v -139.0 4.6498 8.7805
v -141.0 6.1726 6.8049
v -139.0 4.6498 8.7805
v -139.0 4.8267 6.8049
v -141.0 5.8728 8.7805
v -141.0 5.4711 10.7561
v -139.0 4.1337 10.7561
v -141.0 5.8728 8.7805
v -139.0 4.1337 10.7561
v -139.0 4.6498 8.7805
v -141.0 5.4711 10.7561
v -139.0 4.9318 12.7317
v -139.0 4.1337 10.7561
v -141.0 5.58 24.5854
v -141.0 5.7682 26.561
v -139.0 4.5348 26.561
v -141.0 5.7682 26.561
v -141.0 6.4131 28.5366
v -139.0 5.1342 28.5366
v -141.0 5.7682 26.561
v -139.0 5.1342 28.5366
v -139.0 4.5348 26.561
v -141.0 6.4131 28.5366
v -141.0 6.8451 30.5122
v -139.0 5.3422 30.5122
v -141.0 6.4131 28.5366
v -139.0 5.3422 30.5122
v -139.0 5.1342 28.5366
v -141.0 6.8451 30.5122
v -139.0 5.1486 32.4878
v -139.0 5.3422 30.5122
v -141.0 5.4999 38.4146
v -141.0 5.8946 40.3902
v -139.0 4.4856 40.3902
v -141.0 5.8946 40.3902
v -141.0 6.2018 42.3659
v -139.0 4.9985 42.3659
v -141.0 5.8946 40.3902
v -139.0 4.9985 42.3659
v -139.0 4.4856 40.3902
v -141.0 6.2018 42.3659
v -141.0 6.4498 44.3415
v -139.0 5.2683 44.3415
v -141.0 6.2018 42.3659
v -139.0 5.2683 44.3415
v -139.0 4.9985 42.3659
v -141.0 6.4498 44.3415
v -141.0 6.5392 46.3171
v -139.0 5.1785 46.3171
v -141.0 6.4498 44.3415
v -139.0 5.1785 46.3171
v -139.0 5.2683 44.3415
v -141.0 6.5392 46.3171
v -141.0 6.3164 48.2927
v -139.0 4.6751 48.2927
v -141.0 6.5392 46.3171
v -139.0 4.6751 48.2927
v -139.0 5.1785 46.3171
v -141.0 5.7785 54.2195
v -141.0 5.8828 56.1951
v -139.0 4.432 56.1951
v -141.0 5.8828 56.1951
v -141.0 5.8692 58.1707
v -139.0 4.6562 58.1707
v -141.0 5.8828 56.1951
v -139.0 4.6562 58.1707
v -139.0 4.432 56.1951
v -141.0 5.8692 58.1707
v -141.0 5.8067 60.1463
v -139.0 4.7009 60.1463
v -141.0 5.8692 58.1707
v -139.0 4.7009 60.1463
v -139.0 4.6562 58.1707
v -141.0 5.8067 60.1463
v -141.0 5.6463 62.122
v -139.0 4.4406 62.122
v -141.0 5.8067 60.1463
v -139.0 4.4406 62.122
v -139.0 4.7009 60.1463
v -141.0 5.6463 62.122
v -141.0 5.2503 64.0976
v -139.0 3.7771 64.0976
v -141.0 5.6463 62.122
v -139.0 3.7771 64.0976
v -139.0 4.4406 62.122
v -141.0 1.1681 70.0244
v -141.0 0.0 72.0
v -139.0 0.0 72.0
v -141.0 1.1681 70.0244
v -139.0 0.0 72.0
v -139.0 0.0 70.0244
v -139.0 0.0 -7.0244
v -139.0 0.9428 -5.0488
v -137.0 0.0 -5.0488
v -139.0 0.9428 -5.0488
v -137.0 0.0 -3.0732
v -137.0 0.0 -5.0488
v -139.0 0.8357 68.0488
v -139.0 0.0 70.0244
v -137.0 0.0 70.0244
v -139.0 0.8357 68.0488
v -137.0 0.0 70.0244
v -137.0 0.0 68.0488
v -137.0 0.0 -3.0732
v -137.0 0.5465 -1.0976
v -135.0 0.0 -1.0976
v -137.0 0.5465 -1.0976
v -135.0 0.0 0.878
v -135.0 0.0 -1.0976
v -137.0 2.0979 8.7805
v -137.0 0.9451 10.7561
v -135.0 0.0 10.7561
v -137.0 0.9451 10.7561
v -137.0 1.4439 12.7317
v -135.0 0.0 12.7317
v -137.0 0.9451 10.7561
v -135.0 0.0 12.7317
v -135.0 0.0 10.7561
v -137.0 1.4439 12.7317
v -135.0 0.0 14.7073
v -135.0 0.0 12.7317
v -137.0 1.9868 34.4634
v -137.0 1.0941 36.439
v -135.0 0.0 36.439
v -137.0 1.0941 36.439
v -137.0 1.0254 38.4146
v -135.0 0.0 38.4146
v -137.0 1.0941 36.439
v -135.0 0.0 38.4146
v -135.0 0.0 36.439
v -137.0 1.0254 38.4146
v -135.0 0.0 40.3902
v -135.0 0.0 38.4146
v -137.0 1.7574 48.2927
v -137.0 0.3308 50.2683
v -135.0 0.0 50.2683
v -137.0 0.3308 50.2683
v -137.0 0.7998 52.2439
v -135.0 0.0 52.2439
v -137.0 0.3308 50.2683
v -135.0 0.0 52.2439
v -135.0 0.0 50.2683
v -137.0 0.7998 52.2439
v -135.0 0.0 54.2195
v -135.0 0.0 52.2439
v -137.0 1.8156 62.122
v -137.0 0.5391 64.0976
v -135.0 0.0 64.0976
v -137.0 0.5391 64.0976
v -137.0 0.0 66.0732
v -135.0 0.0 66.0732
v -137.0 0.5391 64.0976
v -135.0 0.0 66.0732
v -135.0 0.0 64.0976
vn -0.28087 0.95975 0.0
vn 0.0 0.95881 -0.28406
vn -0.2339 0.79926 -0.55361
vn -0.39243 0.91978 0.0
vn -0.56563 0.82466 0.0
vn -0.38147 0.8941 -0.23466
vn -0.63076 0.77598 0.0
vn 0.0 0.77217 -0.63541
vn -0.51673 0.85615 0.0
vn -0.4718 0.88171 0.0
vn -0.51582 0.85465 0.05922
vn -0.43336 0.80988 -0.39535
vn -0.17653 0.98429 0.0
vn -0.40713 0.91337 0.0
vn -0.17062 0.95135 -0.25657
vn -0.36546 0.81988 -0.44073
vn -0.63654 0.77124 0.0
vn -0.25177 0.96779 0.0
vn -0.24397 0.9378 0.24698
vn -0.41354 0.91048 0.0
vn 0.0 0.90856 -0.41776
vn -0.40163 0.9158 0.0
vn -0.37205 0.84836 0.37664
vn -0.53464 0.84508 0.0
vn 0.0 0.84209 -0.53933
vn -0.50586 0.8194 -0.2696
vn -0.58499 0.79402 -0.16527
vn -0.51696 0.84971 -0.10365
vn -0.5229 0.84701 -0.09565
vn -0.57492 0.81809 0.01396
vn -0.5186 0.8524 -0.06688
vn -0.57461 0.81765 -0.03563
vn -0.57095 0.80945 -0.13713
vn -0.54749 0.83542 0.04833
vn -0.57414 0.81398 0.0883
vn -0.57559 0.7965 0.18517
vn -0.54302 0.8286 0.13618
vn -0.57847 0.80049 0.1568
vn -0.56843 0.82273 0.00021
vn -0.51622 0.83862 0.17387
vn -0.55356 0.80121 0.22723
vn -0.51644 0.79814 0.31027
vn -0.50155 0.8148 0.29076
vn -0.58181 0.8088 0.08573
vn -0.54304 0.83926 0.02753
vn -0.56161 0.78071 -0.27402
vn -0.61281 0.78 0.12678
vn -0.5598 0.77357 0.297
vn -0.52064 0.85218 0.05219
vn -0.58042 0.80208 0.14064
vn -0.50302 0.84215 -0.1943
vn -0.51264 0.83909 -0.182
vn -0.56422 0.82206 -0.07661
vn -0.50655 0.84807 -0.15548
vn -0.62902 0.77719 -0.01766
vn -0.56176 0.81847 -0.12052
vn -0.6286 0.77668 -0.04041
vn -0.44599 0.81804 0.36318
vn -0.43077 0.79011 0.43609
vn -0.26653 0.805 -0.53004
vn -0.39823 0.81983 -0.41145
vn -0.2534 0.90066 -0.353
vn -0.29899 0.90303 -0.30845
vn -0.33195 0.9235 -0.19222
vn -0.26104 0.92782 -0.26647
vn -0.45999 0.88231 -0.09963
vn -0.32734 0.91066 -0.25208
vn -0.55294 0.83067 -0.06517
vn -0.4534 0.86966 -0.19527
vn -0.57153 0.81981 -0.03573
vn -0.55302 0.8308 -0.0627
vn -0.51751 0.85461 0.04274
vn -0.56801 0.81476 0.1163
vn -0.45746 0.86821 0.19218
vn -0.50163 0.82838 0.24932
vn -0.31593 0.85168 -0.41812
vn -0.44714 0.84863 -0.28265
vn -0.26835 0.93598 -0.22788
vn -0.34403 0.92743 -0.1467
vn -0.31759 0.94788 -0.02591
vn -0.27486 0.9587 -0.07313
vn -0.43595 0.89472 0.09705
vn -0.3174 0.94731 -0.0432
vn -0.53968 0.83072 0.13653
vn -0.43802 0.89896 -5e-05
vn -0.58452 0.79625 0.15597
vn -0.54246 0.83501 0.09218
vn -0.56331 0.79559 0.22298
vn -0.57448 0.78256 0.23996
vn -0.47642 0.86756 -0.14268
vn -0.57786 0.81613 -0.00293
vn -0.36567 0.89254 -0.26393
vn -0.47699 0.8686 -0.13423
vn -0.27851 0.9574 -0.07633
vn -0.37885 0.9247 0.03749
vn -0.24938 0.95989 0.12812
vn -0.27588 0.94837 0.15645
vn -0.30758 0.91542 0.25962
vn -0.24658 0.9491 0.19596
vn -0.40607 0.86068 0.30714
vn -0.31183 0.92807 0.2036
vn -0.51243 0.85827 0.02815
vn -0.42516 0.90115 -0.0847
vn -0.53805 0.79535 -0.27915
vn -0.48071 0.80515 -0.34735
vn -0.52866 0.81545 -0.23572
vn -0.54772 0.80964 -0.21092
vn -0.45373 0.88077 -0.13557
vn -0.54392 0.83899 -0.01605
vn -0.33164 0.94217 0.04831
vn -0.44971 0.87296 0.18894
vn -0.24566 0.93551 0.25391
vn -0.31422 0.89268 0.32308
vn -0.25971 0.88172 0.39386
vn -0.23576 0.89779 0.372
vn -0.33856 0.92681 0.16251
vn -0.28116 0.95454 0.099
vn -0.44327 0.87602 -0.19001
vn -0.3251 0.88997 -0.31979
vn -0.52807 0.83528 -0.15314
vn -0.43504 0.85977 -0.26747
vn -0.54487 0.82958 -0.12215
vn -0.5288 0.83644 -0.14399
vn -0.4867 0.87239 -0.04539
vn -0.54853 0.83516 0.04016
vn -0.37319 0.92169 0.10594
vn -0.47422 0.85001 0.22936
vn -0.27211 0.91651 0.29319
vn -0.34872 0.86124 0.36968
vn -0.25445 0.86022 0.44191
vn -0.25523 0.85964 0.44257
vn -0.31624 0.78335 0.53513
vn -0.2485 0.84011 0.48214
vn -0.31122 0.77092 0.55572
vn 0.0 0.8755 0.48322
vn -0.01876 0.77663 -0.62968
vn -0.1021 0.81191 -0.57478
vn -0.0351 0.89321 -0.44828
vn -0.02145 0.88802 -0.4593
vn -0.15048 0.93554 -0.31955
vn -0.03562 0.90632 -0.42109
vn -0.29246 0.91912 -0.26397
vn -0.14532 0.90342 -0.40338
vn -0.37317 0.89414 -0.24751
vn -0.28535 0.89676 -0.33824
vn -0.36243 0.90937 -0.20419
vn -0.37841 0.90669 -0.18633
vn -0.21998 0.97274 -0.07341
vn -0.36867 0.92503 0.09163
vn -0.04302 0.98905 0.14118
vn -0.21011 0.92908 0.30441
vn 0.03168 0.95709 0.28806
vn -0.04065 0.93447 0.35371
vn 0.04128 0.94795 -0.31573
vn 0.03149 0.95126 -0.30677
vn -0.08483 0.98416 -0.15567
vn 0.0418 0.95971 -0.27787
vn -0.28755 0.95499 -0.07285
vn -0.08242 0.95617 -0.28096
vn -0.41987 0.90664 -0.04135
vn -0.28268 0.93881 -0.19678
vn -0.41388 0.91033 -5e-05
vn -0.42021 0.90739 0.00772
vn -0.30512 0.94656 0.10449
vn -0.40401 0.88862 0.21711
vn -0.13899 0.94678 0.29032
vn -0.27862 0.86435 0.41865
vn 0.00785 0.99996 -0.00359
vn -0.14361 0.97826 0.14964
vn 0.06248 0.98634 -0.15242
vn 0.00781 0.99517 -0.09787
vn -0.01768 0.99902 0.04051
vn 0.06317 0.99714 -0.04139
vn -0.15689 0.97445 0.16075
vn -0.01769 0.99965 0.01989
vn -0.28327 0.93923 0.19392
vn -0.15864 0.98531 0.06319
vn -0.33467 0.92045 0.20192
vn -0.28556 0.94682 0.14828
vn -0.31932 0.94349 -0.08868
vn -0.34101 0.93786 -0.06428
vn -0.21268 0.89719 -0.38706
vn -0.30609 0.90438 -0.29733
vn -0.08523 0.96418 -0.25118
vn -0.22935 0.9675 -0.10646
vn 0.02094 0.9996 -0.01913
vn -0.08769 0.992 0.09083
vn 0.05066 0.97611 0.21127
vn 0.02033 0.97045 0.24045
vn -0.04232 0.93947 0.34001
vn 0.05012 0.96571 0.25472
vn -0.17461 0.90964 0.37691
vn -0.0435 0.96557 0.25649
vn -0.28708 0.9528 0.09882
vn -0.1885 0.98205 -0.00686
vn -0.32646 0.88953 -0.31964
vn -0.26714 0.88661 -0.37756
vn -0.29763 0.91159 -0.28359
vn -0.33396 0.90998 -0.24578
vn -0.19124 0.96731 -0.16652
vn -0.31013 0.94987 -0.03967
vn -0.02137 0.99862 0.04802
vn -0.18933 0.95764 0.21697
vn 0.05697 0.9639 0.26009
vn -0.02019 0.94328 0.33139
vn 0.01429 0.91883 0.3944
vn 0.05507 0.93176 0.35887
vn -0.09133 0.88538 0.45582
vn 0.01446 0.93008 0.36707
vn -0.18187 0.85285 0.48945
vn -0.09322 0.9037 0.41791
vn -0.20869 0.79335 0.57188
vn -0.17441 0.81787 0.54833
vn 0.14598 0.80743 -0.57161
vn 0.04787 0.88721 -0.45887
vn 0.15017 0.83059 -0.53625
vn -0.04141 0.90612 -0.421
vn 0.04691 0.8695 -0.4917
vn -0.03586 0.91253 -0.40744
vn -0.04179 0.91451 -0.4024
vn 0.08803 0.93202 -0.35154
vn -0.03817 0.97128 -0.23484
vn 0.27691 0.94123 -0.19343
vn 0.09403 0.99556 -0.00328
vn 0.36831 0.92517 0.09165
vn 0.27697 0.94144 0.19228
vn 0.34308 0.89262 0.29246
vn 0.35509 0.89197 0.27983
vn 0.25987 0.90311 0.34184
vn 0.34705 0.90294 0.25348
vn 0.12994 0.94367 -0.30432
vn 0.25162 0.87442 -0.41482
vn -0.01445 0.96045 -0.27808
vn 0.12486 0.90675 -0.40275
vn -0.05843 0.9578 -0.28143
vn -0.01425 0.94657 -0.32217
vn 0.02637 0.97839 -0.20508
vn -0.06045 0.99099 -0.11949
vn 0.17529 0.98448 0.00837
vn 0.0266 0.98686 0.15935
vn 0.30766 0.92431 0.22583
vn 0.16305 0.91573 0.36723
vn 0.33353 0.84845 0.41096
vn 0.28049 0.84269 0.45956
vn 0.32575 0.93459 0.14296
vn 0.36402 0.92602 0.09989
vn 0.23263 0.96789 -0.09519
vn 0.32297 0.9266 -0.19263
vn 0.09178 0.99492 -0.0413
vn 0.22975 0.95589 -0.18299
vn -0.03826 0.99907 0.01987
vn 0.09129 0.98961 -0.1111
vn -0.05232 0.99658 0.06391
vn -0.03822 0.99803 0.04966
vn 0.05278 0.98658 0.15451
vn -0.0507 0.96565 0.25485
vn 0.1992 0.97767 -0.06701
vn 0.05324 0.99511 0.08316
vn 0.31851 0.9005 -0.29605
vn 0.19671 0.96546 -0.17085
vn 0.38896 0.91573 -0.10076
vn 0.33324 0.94216 -0.03591
vn 0.33921 0.93679 0.08578
vn 0.39081 0.92011 0.02589
vn 0.165 0.95735 0.2372
vn 0.34 0.93897 0.05228
vn 0.0074 0.9669 0.25504
vn 0.16907 0.981 0.09519
vn -0.04759 0.96539 0.25645
vn 0.00749 0.97902 0.20362
vn -0.01315 0.99989 -0.00698
vn -0.04922 0.99835 0.02956
vn 0.10065 0.91538 -0.38981
vn -0.01259 0.95743 -0.2884
vn 0.26567 0.93071 -0.25138
vn 0.10883 0.98984 -0.09149
vn 0.37943 0.92442 -0.0386
vn 0.27358 0.95841 0.08126
vn 0.34121 0.91675 0.2077
vn 0.3741 0.91145 0.17121
vn 0.21865 0.92064 0.32344
vn 0.34195 0.91873 0.19749
vn 0.07884 0.93027 0.35829
vn 0.22547 0.94935 0.21884
vn -9e-05 0.93018 0.36711
vn 0.08071 0.95237 0.29406
vn 0.02255 0.90742 0.41963
vn -9e-05 0.89881 0.43835
vn 0.1151 0.82508 0.55316
vn 0.01953 0.78587 0.61808
vn 0.0 0.85873 -0.51243
vn 0.26321 0.8105 -0.52328
vn 0.30389 0.82929 -0.46896
vn 0.27652 0.85148 -0.44556
vn 0.41865 0.83123 -0.36576
vn 0.3311 0.90352 -0.27207
vn 0.53453 0.82148 -0.19862
vn 0.44828 0.89006 -0.08271
vn 0.57751 0.81638 -0.00269
vn 0.54484 0.83731 0.04531
vn 0.52423 0.83436 0.17041
vn 0.57457 0.81222 0.10085
vn 0.40795 0.87114 0.2733
vn 0.52767 0.83984 0.12745
vn 0.35298 0.90081 0.25288
vn 0.41709 0.89064 0.18109
vn 0.25929 0.87259 -0.41395
vn 0.32224 0.82235 -0.46895
vn 0.28662 0.87556 -0.3889
vn 0.26479 0.8911 -0.36855
vn 0.41373 0.86185 -0.29333
vn 0.30637 0.9359 -0.17386
vn 0.54912 0.82974 -0.10004
vn 0.43206 0.90004 0.05708
vn 0.60042 0.78946 0.12747
vn 0.53922 0.81478 0.21302
vn 0.46951 0.77515 0.42273
vn 0.37356 0.92226 0.09948
vn 0.51636 0.85251 -0.08121
vn 0.27135 0.94234 -0.1959
vn 0.35934 0.88714 -0.28959
vn 0.24836 0.95139 -0.18213
vn 0.27079 0.94042 -0.20564
vn 0.31976 0.94158 -0.10571
vn 0.25246 0.96709 -0.03167
vn 0.43109 0.9012 0.04484
vn 0.31647 0.93189 0.17727
vn 0.5008 0.8369 0.22088
vn 0.40758 0.85206 0.32843
vn 0.54492 0.83558 0.06983
vn 0.50992 0.85215 0.11758
vn 0.52692 0.83691 -0.1481
vn 0.53876 0.82613 -0.16505
vn 0.45664 0.88901 -0.03388
vn 0.52824 0.83901 -0.13046
vn 0.34014 0.94 0.02645
vn 0.45408 0.88402 -0.11097
vn 0.25321 0.96591 0.05378
vn 0.33995 0.93948 -0.04251
vn 0.26641 0.95935 0.09309
vn 0.25209 0.96161 0.10845
vn 0.3601 0.91337 0.18997
vn 0.25528 0.91926 0.29966
vn 0.44286 0.8962 0.02654
vn 0.36409 0.9235 0.12074
vn 0.50404 0.82698 -0.24911
vn 0.43708 0.8845 -0.16315
vn 0.54256 0.83645 -0.07731
vn 0.51992 0.85303 -0.04503
vn 0.49498 0.8658 0.07341
vn 0.54418 0.83895 0.00578
vn 0.37953 0.90928 0.1708
vn 0.49613 0.86781 0.02745
vn 0.26863 0.94173 0.20244
vn 0.38412 0.92026 0.07471
vn 0.24164 0.94557 0.21797
vn 0.26935 0.94426 0.18927
vn 0.3093 0.90864 0.28056
vn 0.23126 0.90496 0.35716
vn 0.40598 0.8214 0.4006
vn 0.27521 0.80848 0.52022
vn 0.46966 0.79677 -0.38024
vn 0.62518 0.77934 0.04217
vn 0.55537 0.82527 0.10247
vn 0.62573 0.78002 -0.00521
vn 0.51737 0.84607 0.12839
vn 0.55677 0.82736 0.07408
vn 0.5481 0.81964 0.16666
vn 0.5092 0.8327 0.21753
vn 0.52695 0.78802 -0.31834
vn 0.52319 0.84837 -0.08082
vn 0.51944 0.81232 -0.26517
vn 0.50824 0.82412 -0.25004
vn 0.59177 0.7875 -0.1722
vn 0.53662 0.83919 -0.08835
vn 0.59891 0.797 0.0781
vn 0.5684 0.80681 -0.16119
vn 0.51102 0.84936 -0.13207
vn 0.56338 0.79969 -0.2076
vn 0.50568 0.856 -0.10746
vn 0.51204 0.85106 -0.11623
vn 0.56211 0.82621 -0.03739
vn 0.50824 0.86033 0.03911
vn 0.63198 0.7701 0.08685
vn 0.55043 0.80903 0.20615
vn 0.58664 0.80872 -0.0427
vn 0.51857 0.85502 0.00589
vn 0.58472 0.80606 -0.09148
vn 0.48368 0.87481 0.02768
vn 0.51848 0.85487 -0.01934
vn 0.51505 0.85435 0.06936
vn 0.48068 0.86938 0.11454
vn 0.5855 0.79486 0.15933
vn 0.49617 0.82305 0.27642
vn 0.0 0.86079 0.50896
vn 0.50433 0.86351 0.0
vn 0.39148 0.83047 -0.39632
vn 0.4264 0.90454 0.0
vn 0.0 0.92099 0.38959
vn 0.38555 0.92269 0.0
vn 0.25468 0.93202 -0.25782
vn 0.26359 0.96464 0.0
vn 0.37788 0.79967 0.46662
vn 0.57345 0.79431 -0.20055
vn 0.42725 0.90413 0.0
vn 0.58535 0.81078 0.0
vn 0.44615 0.81556 0.36852
vn 0.45601 0.88944 0.03093
vn 0.47993 0.87731 0.0
vn 0.45623 0.88986 0.0
vn 0.1329 0.80353 0.58024
vn 0.36261 0.90674 -0.21526
vn 0.16318 0.9866 0.0
vn 0.37131 0.92851 0.0
vn 0.22081 0.81919 0.52931
vn 0.0 0.96473 0.26325
vn 0.26026 0.96554 0.0
f 1//1 2//1 3//1
f 4//2 5//2 6//2
f 7//3 8//3 9//3
f 10//4 11//4 12//4
f 13//5 14//5 15//5
f 16//6 17//6 18//6
f 19//7 20//7 21//7
f 22//8 23//8 24//8
f 25//9 26//9 27//9
f 28//10 29//10 30//10
f 31//11 32//11 33//11
f 34//12 35//12 36//12
f 37//13 38//13 39//13
f 40//14 41//14 42//14
f 43//15 44//15 45//15
f 46//16 47//16 48//16
f 49//17 50//17 51//17
f 52//18 53//18 54//18
f 55//19 56//19 57//19
f 58//20 59//20 60//20
f 61//21 62//21 63//21
f 64//22 65//22 66//22
f 67//23 68//23 69//23
f 70//24 71//24 72//24
f 73//25 74//25 75//25
f 76//26 77//26 78//26
f 79//27 80//27 81//27
f 82//28 83//28 84//28
f 85//29 86//29 87//29
f 88//30 89//30 90//30
f 91//31 92//31 93//31
f 94//32 95//32 96//32
f 97//33 98//33 99//33
f 100//34 101//34 102//34
f 103//35 104//35 105//35
f 106//36 107//36 108//36
f 109//37 110//37 111//37
f 112//38 113//38 114//38
f 115//39 116//39 117//39
f 118//40 119//40 120//40
f 121//41 122//41 123//41
f 124//42 125//42 126//42
f 127//43 128//43 129//43
f 130//44 131//44 132//44
f 133//45 134//45 135//45
f 136//46 137//46 138//46
f 139//47 140//47 141//47
f 142//48 143//48 144//48
f 145//49 146//49 147//49
f 148//50 149//50 150//50
f 151//51 152//51 153//51
f 154//52 155//52 156//52
f 157//53 158//53 159//53
f 160//54 161//54 162//54
f 163//55 164//55 165//55
f 166//56 167//56 168//56
f 169//57 170//57 171//57
f 172//58 173//58 174//58
f 175//59 176//59 177//59
f 178//60 179//60 180//60
f 181//61 182//61 183//61
f 184//62 185//62 186//62
f 187//63 188//63 189//63
f 190//64 191//64 192//64
f 193//65 194//65 195//65
f 196//66 197//66 198//66
f 199//67 200//67 201//67
f 202//68 203//68 204//68
f 205//69 206//69 207//69
f 208//70 209//70 210//70
f 211//71 212//71 213//71
f 214//72 215//72 216//72
f 217//73 218//73 219//73
f 220//74 221//74 222//74
f 223//75 224//75 225//75
f 226//76 227//76 228//76
f 229//77 230//77 231//77
f 232//78 233//78 234//78
f 235//79 236//79 237//79
f 238//80 239//80 240//80
f 241//81 242//81 243//81
f 244//82 245//82 246//82
f 247//83 248//83 249//83
f 250//84 251//84 252//84
f 253//85 254//85 255//85
f 256//86 257//86 258//86
f 259//87 260//87 261//87
f 262//88 263//88 264//88
f 265//89 266//89 267//89
f 268//90 269//90 270//90
f 271//91 272//91 273//91
f 274//92 275//92 276//92
f 277//93 278//93 279//93
f 280//94 281//94 282//94
f 283//95 284//95 285//95
f 286//96 287//96 288//96
f 289//97 290//97 291//97
f 292//98 293//98 294//98
f 295//99 296//99 297//99
f 298//100 299//100 300//100
f 301//101 302//101 303//101
f 304//102 305//102 306//102
f 307//103 308//103 309//103
f 310//104 311//104 312//104
f 313//105 314//105 315//105
f 316//106 317//106 318//106
f 319//107 320//107 321//107
f 322//108 323//108 324//108
f 325//109 326//109 327//109
f 328//110 329//110 330//110
f 331//111 332//111 333//111
f 334//112 335//112 336//112
f 337//113 338//113 339//113
f 340//114 341//114 342//114
f 343//115 344//115 345//115
f 346//116 347//116 348//116
f 349//117 350//117 351//117
f 352//118 353//118 354//118
f 355//119 356//119 357//119
f 358//120 359//120 360//120
f 361//121 362//121 363//121
f 364//122 365//122 366//122
f 367//123 368//123 369//123
f 370//124 371//124 372//124
f 373//125 374//125 375//125
f 376//126 377//126 378//126
f 379//127 380//127 381//127
f 382//128 383//128 384//128
f 385//129 386//129 387//129
f 388//130 389//130 390//130
f 391//131 392//131 393//131
f 394//132 395//132 396//132
f 397//133 398//133 399//133
f 400//134 401//134 402//134
f 403//135 404//135 405//135
f 406//136 407//136 408//136
f 409//137 410//137 411//137
f 412//138 413//138 414//138
f 415//139 416//139 417//139
f 418//140 419//140 420//140
f 421//141 422//141 423//141
f 424//142 425//142 426//142
f 427//143 428//143 429//143
f 430//144 431//144 432//144
f 433//145 434//145 435//145
f 436//146 437//146 438//146
f 439//147 440//147 441//147
f 442//148 443//148 444//148
f 445//149 446//149 447//149
f 448//150 449//150 450//150
f 451//151 452//151 453//151
f 454//152 455//152 456//152
f 457//153 458//153 459//153
f 460//154 461//154 462//154
f 463//155 464//155 465//155
f 466//156 467//156 468//156
f 469//157 470//157 471//157
f 472//158 473//158 474//158
f 475//159 476//159 477//159
f 478//160 479//160 480//160
f 481//161 482//161 483//161
f 484//162 485//162 486//162
f 487//163 488//163 489//163
f 490//164 491//164 492//164
f 493//165 494//165 495//165
f 496//166 497//166 498//166
f 499//167 500//167 501//167
f 502//168 503//168 504//168
f 505//169 506//169 507//169
f 508//170 509//170 510//170
f 511//171 512//171 513//171
f 514//172 515//172 516//172
f 517//173 518//173 519//173
f 520//174 521//174 522//174
f 523//175 524//175 525//175
f 526//176 527//176 528//176
f 529//177 530//177 531//177
f 532//178 533//178 534//178
f 535//179 536//179 537//179
f 538//180 539//180 540//180
f 541//181 542//181 543//181
f 544//182 545//182 546//182
f 547//183 548//183 549//183
f 550//184 551//184 552//184
f 553//185 554//185 555//185
f 556//186 557//186 558//186
f 559//187 560//187 561//187
f 562//188 563//188 564//188
f 565//189 566//189 567//189
f 568//190 569//190 570//190
f 571//191 572//191 573//191
f 574//192 575//192 576//192
f 577//193 578//193 579//193
f 580//194 581//194 582//194
f 583//195 584//195 585//195
f 586//196 587//196 588//196
f 589//197 590//197 591//197
f 592//198 593//198 594//198
f 595//199 596//199 597//199
f 598//200 599//200 600//200
f 601//201 602//201 603//201
f 604//202 605//202 606//202
f 607//203 608//203 609//203
f 610//204 611//204 612//204
f 613//205 614//205 615//205
f 616//206 617//206 618//206
f 619//207 620//207 621//207
f 622//208 623//208 624//208
f 625//209 626//209 627//209
f 628//210 629//210 630//210
f 631//211 632//211 633//211
f 634//212 635//212 636//212
f 637//213 638//213 639//213
f 640//214 641//214 642//214
f 643//215 644//215 645//215
f 646//216 647//216 648//216
f 649//217 650//217 651//217
f 652//218 653//218 654//218
f 655//219 656//219 657//219
f 658//220 659//220 660//220
f 661//221 662//221 663//221
f 664//222 665//222 666//222
f 667//223 668//223 669//223
f 670//224 671//224 672//224
f 673//225 674//225 675//225
f 676//226 677//226 678//226
f 679//227 680//227 681//227
f 682//228 683//228 684//228
f 685//229 686//229 687//229
f 688//230 689//230 690//230
f 691//231 692//231 693//231
f 694//232 695//232 696//232
f 697//233 698//233 699//233
f 700//234 701//234 702//234
f 703//235 704//235 705//235
f 706//236 707//236 708//236
f 709//237 710//237 711//237
f 712//238 713//238 714//238
f 715//239 716//239 717//239
f 718//240 719//240 720//240
f 721//241 722//241 723//241
f 724//242 725//242 726//242
f 727//243 728//243 729//243
f 730//244 731//244 732//244
f 733//245 734//245 735//245
f 736//246 737//246 738//246
f 739//247 740//247 741//247
f 742//248 743//248 744//248
f 745//249 746//249 747//249
f 748//250 749//250 750//250
f 751//251 752//251 753//251
f 754//252 755//252 756//252
f 757//253 758//253 759//253
f 760//254 761//254 762//254
f 763//255 764//255 765//255
f 766//256 767//256 768//256
f 769//257 770//257 771//257
f 772//258 773//258 774//258
f 775//259 776//259 777//259
f 778//260 779//260 780//260
f 781//261 782//261 783//261
f 784//262 785//262 786//262
f 787//263 788//263 789//263
f 790//264 791//264 792//264
f 793//265 794//265 795//265
f 796//266 797//266 798//266
f 799//267 800//267 801//267
f 802//268 803//268 804//268
f 805//269 806//269 807//269
f 808//270 809//270 810//270
f 811//271 812//271 813//271
f 814//272 815//272 816//272
f 817//273 818//273 819//273
f 820//274 821//274 822//274
f 823//275 824//275 825//275
f 826//276 827//276 828//276
f 829//277 830//277 831//277
f 832//278 833//278 834//278
f 835//279 836//279 837//279
f 838//280 839//280 840//280
f 841//281 842//281 843//281
f 844//282 845//282 846//282
f 847//283 848//283 849//283
f 850//284 851//284 852//284
f 853//285 854//285 855//285
f 856//286 857//286 858//286
f 859//287 860//287 861//287
f 862//288 863//288 864//288
f 865//289 866//289 867//289
f 868//290 869//290 870//290
f 871//291 872//291 873//291
f 874//292 875//292 876//292
f 877//293 878//293 879//293
f 880//294 881//294 882//294
f 883//295 884//295 885//295
f 886//296 887//296 888//296
f 889//297 890//297 891//297
f 892//298 893//298 894//298
f 895//299 896//299 897//299
f 898//300 899//300 900//300
f 901//301 902//301 903//301
f 904//302 905//302 906//302
f 907//303 908//303 909//303
f 910//304 911//304 912//304
f 913//305 914//305 915//305
f 916//306 917//306 918//306
f 919//307 920//307 921//307
f 922//308 923//308 924//308
f 925//309 926//309 927//309
f 928//310 929//310 930//310
f 931//311 932//311 933//311
f 934//312 935//312 936//312
f 937//313 938//313 939//313
f 940//314 941//314 942//314
f 943//315 944//315 945//315
f 946//316 947//316 948//316
f 949//317 950//317 951//317
f 952//318 953//318 954//318
f 955//319 956//319 957//319
f 958//320 959//320 960//320
f 961//321 962//321 963//321
f 964//322 965//322 966//322
f 967//323 968//323 969//323
f 970//324 971//324 972//324
f 973//325 974//325 975//325
f 976//326 977//326 978//326
f 979//327 980//327 981//327
f 982//328 983//328 984//328
f 985//329 986//329 987//329
f 988//330 989//330 990//330
f 991//331 992//331 993//331
f 994//332 995//332 996//332
f 997//333 998//333 999//333
f 1000//334 1001//334 1002//334
f 1003//335 1004//335 1005//335
f 1006//336 1007//336 1008//336
f 1009//337 1010//337 1011//337
f 1012//338 1013//338 1014//338
f 1015//339 1016//339 1017//339
f 1018//340 1019//340 1020//340
f 1021//341 1022//341 1023//341
f 1024//342 1025//342 1026//342
f 1027//343 1028//343 1029//343
f 1030//344 1031//344 1032//344
f 1033//345 1034//345 1035//345
f 1036//346 1037//346 1038//346
f 1039//347 1040//347 1041//347
f 1042//348 1043//348 1044//348
f 1045//349 1046//349 1047//349
f 1048//350 1049//350 1050//350
f 1051//351 1052//351 1053//351
f 1054//352 1055//352 1056//352
f 1057//353 1058//353 1059//353
f 1060//354 1061//354 1062//354
f 1063//355 1064//355 1065//355
f 1066//356 1067//356 1068//356
f 1069//357 1070//357 1071//357
f 1072//358 1073//358 1074//358
f 1075//359 1076//359 1077//359
f 1078//360 1079//360 1080//360
f 1081//361 1082//361 1083//361
f 1084//362 1085//362 1086//362
f 1087//363 1088//363 1089//363
f 1090//364 1091//364 1092//364
f 1093//365 1094//365 1095//365
f 1096//366 1097//366 1098//366
f 1099//367 1100//367 1101//367
f 1102//368 1103//368 1104//368
f 1105//369 1106//369 1107//369
f 1108//370 1109//370 1110//370
f 1111//371 1112//371 1113//371
f 1114//372 1115//372 1116//372
f 1117//373 1118//373 1119//373
f 1120//374 1121//374 1122//374
f 1123//375 1124//375 1125//375
f 1126//376 1127//376 1128//376
f 1129//377 1130//377 1131//377
f 1132//378 1133//378 1134//378
f 1135//379 1136//379 1137//379
f 1138//380 1139//380 1140//380
f 1141//381 1142//381 1143//381
f 1144//382 1145//382 1146//382
f 1147//383 1148//383 1149//383
f 1150//384 1151//384 1152//384
f 1153//385 1154//385 1155//385
f 1156//386 1157//386 1158//386
f 1159//387 1160//387 1161//387
f 1162//388 1163//388 1164//388
f 1165//389 1166//389 1167//389
f 1168//390 1169//390 1170//390
f 1171//391 1172//391 1173//391
f 1174//392 1175//392 1176//392
f 1177//393 1178//393 1179//393
f 1180//394 1181//394 1182//394
f 1183//395 1184//395 1185//395
f 1186//396 1187//396 1188//396
f 1189//397 1190//397 1191//397
f 1192//398 1193//398 1194//398
f 1195//399 1196//399 1197//399
f 1198//400 1199//400 1200//400
f 1201//401 1202//401 1203//401
f 1204//402 1205//402 1206//402
f 1207//403 1208//403 1209//403
f 1210//404 1211//404 1212//404
f 1213//405 1214//405 1215//405
f 1216//406 1217//406 1218//406
f 1219//407 1220//407 1221//407
f 1222//408 1223//408 1224//408
f 1225//409 1226//409 1227//409
f 1228//410 1229//410 1230//410
f 1231//411 1232//411 1233//411
f 1234//412 1235//412 1236//412
f 1237//413 1238//413 1239//413
f 1240//414 1241//414 1242//414
f 1243//415 1244//415 1245//415
f 1246//416 1247//416 1248//416
f 1249//417 1250//417 1251//417
