v 36.8 0.1 33.3
v 39.2 0.1 28.7
v 36.8 0.1 28.7
v 36.8 0.1 33.3
v 39.2 0.1 33.3
v 39.2 0.1 28.7
v 36.8 0.1 29.67942845476287
v 33.36014702879927 0.1 24.81665976251669
v 32.1253572157732 0.1 26.874642784226797
v 36.8 0.1 29.67942845476287
v 36.8 0.1 26.880571545237125
v 33.36014702879927 0.1 24.81665976251669
v 36.8 0.1 28.7
v 38.8746427842268 0.1 28.125357215773203
v 36.8 0.1 26.880571545237125
v 36.8 0.1 28.7
v 38.529857113690724 0.1 28.7
v 38.8746427842268 0.1 28.125357215773203
v 31.8 0.1 26.3
v 34.2 0.1 19.7
v 31.8 0.1 19.7
v 31.8 0.1 26.3
v 34.2 0.1 23.41690481051547
v 34.2 0.1 19.7
v 31.8 0.1 26.3
v 32.470142886309276 0.1 26.3
v 34.2 0.1 23.41690481051547
v 34.2 0.1 23.41690481051547
v 33.36014702879927 0.1 24.81665976251669
v 34.2 0.1 25.32057154523713
v 32.1253572157732 0.1 19.125357215773203
v 36.8 0.1 19.08357147718216
v 36.8 0.1 16.32057154523713
v 32.1253572157732 0.1 19.125357215773203
v 36.766384083518076 0.1 19.139598004652026
v 36.8 0.1 19.08357147718216
v 32.1253572157732 0.1 19.125357215773203
v 35.83238075793812 0.1 19.7
v 36.766384083518076 0.1 19.139598004652026
v 32.1253572157732 0.1 19.125357215773203
v 32.470142886309276 0.1 19.7
v 35.83238075793812 0.1 19.7
v 35.83238075793812 0.1 19.7
v 34.2 0.1 19.7
v 34.2 0.1 20.67942845476287
v 36.8 0.1 19.08357147718216
v 36.766384083518076 0.1 19.139598004652026
v 36.8 0.1 19.119428454762875
v 36.8 0.1 16.32057154523713
v 38.20000000000001 0.1 16.750238143848815
v 37.63985297120073 0.1 15.81665976251669
v 36.8 0.1 16.32057154523713
v 36.8 0.1 19.08357147718216
v 38.20000000000001 0.1 16.750238143848815
v 38.20000000000001 0.1 16.750238143848815
v 36.8 0.1 19.119428454762875
v 38.8746427842268 0.1 17.874642784226797
v 38.20000000000001 0.1 16.750238143848815
v 36.8 0.1 19.08357147718216
v 36.8 0.1 19.119428454762875
v 38.0 0.1 27.600571545237123
v 43.8746427842268 0.1 26.874642784226797
v 42.63985297120073 0.1 24.81665976251669
v 38.0 0.1 27.600571545237123
v 40.832380757938125 0.1 28.7
v 43.8746427842268 0.1 26.874642784226797
v 38.0 0.1 27.600571545237123
v 39.83238075793813 0.1 28.7
v 40.832380757938125 0.1 28.7
v 38.8746427842268 0.1 28.125357215773203
v 38.529857113690724 0.1 28.7
v 39.83238075793813 0.1 28.7
v 40.832380757938125 0.1 28.7
v 39.83238075793813 0.1 28.7
v 40.332380757938125 0.1 28.999999999999996
v 40.332380757938125 0.1 28.999999999999996
v 39.2 0.1 28.7
v 39.2 0.1 29.67942845476287
v 40.332380757938125 0.1 28.999999999999996
v 39.83238075793813 0.1 28.7
v 39.2 0.1 28.7
v 41.8 0.1 22.750238143848776
v 44.2 0.1 19.7
v 41.8 0.1 19.7
v 41.8 0.1 22.750238143848776
v 44.2 0.1 23.880571545237128
v 44.2 0.1 19.7
v 41.8 0.1 22.750238143848776
v 42.93397061825957 0.1 24.640189174281385
v 44.2 0.1 23.880571545237128
v 44.2 0.1 23.880571545237128
v 43.929857113690744 0.1 26.3
v 44.2 0.1 26.3
v 44.2 0.1 23.880571545237128
v 42.93397061825957 0.1 24.640189174281385
v 43.929857113690744 0.1 26.3
v 41.8 0.1 25.32057154523713
v 42.93397061825957 0.1 24.640189174281385
v 41.8 0.1 22.750238143848776
v 42.63985297120073 0.1 24.81665976251669
v 43.929857113690744 0.1 26.3
v 42.93397061825957 0.1 24.640189174281385
v 42.63985297120073 0.1 24.81665976251669
v 43.529857113690724 0.1 26.3
v 43.929857113690744 0.1 26.3
v 38.0 0.1 16.41690481051547
v 38.65426467585811 0.1 15.993130350751992
v 38.36014702879927 0.1 15.81665976251669
v 38.0 0.1 16.41690481051547
v 38.20000000000001 0.1 16.750238143848815
v 38.65426467585811 0.1 15.993130350751992
v 40.167619242061875 0.1 19.7
v 38.20000000000001 0.1 16.750238143848815
v 39.85861591648195 0.1 19.514598004652047
v 40.167619242061875 0.1 19.7
v 38.65426467585811 0.1 15.993130350751992
v 38.20000000000001 0.1 16.750238143848815
v 40.167619242061875 0.1 19.7
v 41.8 0.1 17.88057154523712
v 38.65426467585811 0.1 15.993130350751992
v 40.167619242061875 0.1 19.7
v 41.8 0.1 19.7
v 41.8 0.1 17.88057154523712
v 41.8 0.1 17.88057154523712
v 43.529857113690724 0.1 19.7
v 43.8746427842268 0.1 19.125357215773203
v 41.8 0.1 17.88057154523712
v 41.8 0.1 19.7
v 43.529857113690724 0.1 19.7
v 39.85861591648195 0.1 19.514598004652047
v 38.8746427842268 0.1 17.874642784226797
v 38.0 0.1 18.399428454762877
v 41.8 0.1 20.67942845476287
v 41.8 0.1 19.7
v 40.167619242061875 0.1 19.7
v 30.90272980589517 0.1 19.85893366170002
v 31.0153734142324 0.1 16.875548914402035
v 29.516105300101785 0.1 18.74963405706531
v 30.90272980589517 0.1 19.85893366170002
v 31.8 0.1 17.503250183016117
v 31.0153734142324 0.1 16.875548914402035
v 30.90272980589517 0.1 19.85893366170002
v 31.8 0.1 19.320571545237122
v 31.8 0.1 17.503250183016117
v 31.8 0.1 20.576749816983885
v 31.8 0.1 19.320571545237122
v 30.90272980589517 0.1 19.85893366170002
v 31.8 0.1 19.320571545237122
v 33.09808668730072 0.1 18.541719532856693
v 31.8 0.1 17.503250183016117
v 31.8 0.1 19.7
v 32.1253572157732 0.1 19.125357215773203
v 31.8 0.1 19.320571545237122
v 31.8 0.1 19.7
v 32.470142886309276 0.1 19.7
v 32.1253572157732 0.1 19.125357215773203
v 42.90191331269928 0.1 18.541719532856693
v 46.483894699898215 0.1 18.74963405706531
v 44.9846265857676 0.1 16.875548914402035
v 42.90191331269928 0.1 18.541719532856693
v 45.29593727122985 0.1 19.7
v 46.483894699898215 0.1 18.74963405706531
v 42.90191331269928 0.1 18.541719532856693
v 44.83238075793813 0.1 19.7
v 45.29593727122985 0.1 19.7
v 43.8746427842268 0.1 19.125357215773203
v 43.529857113690724 0.1 19.7
v 44.83238075793813 0.1 19.7
v 45.29593727122985 0.1 19.7
v 44.83238075793813 0.1 19.7
v 45.09727019410483 0.1 19.858933661700018
v 45.09727019410483 0.1 19.858933661700018
v 44.2 0.1 19.7
v 44.2 0.1 20.57674981698388
v 45.09727019410483 0.1 19.858933661700018
v 44.83238075793813 0.1 19.7
v 44.2 0.1 19.7
vn 0 1 0
f 1//1 2//1 3//1
f 4//1 5//1 6//1
f 7//1 8//1 9//1
f 10//1 11//1 12//1
f 13//1 14//1 15//1
f 16//1 17//1 18//1
f 19//1 20//1 21//1
f 22//1 23//1 24//1
f 25//1 26//1 27//1
f 28//1 29//1 30//1
f 31//1 32//1 33//1
f 34//1 35//1 36//1
f 37//1 38//1 39//1
f 40//1 41//1 42//1
f 43//1 44//1 45//1
f 46//1 47//1 48//1
f 49//1 50//1 51//1
f 52//1 53//1 54//1
f 55//1 56//1 57//1
f 58//1 59//1 60//1
f 61//1 62//1 63//1
f 64//1 65//1 66//1
f 67//1 68//1 69//1
f 70//1 71//1 72//1
f 73//1 74//1 75//1
f 76//1 77//1 78//1
f 79//1 80//1 81//1
f 82//1 83//1 84//1
f 85//1 86//1 87//1
f 88//1 89//1 90//1
f 91//1 92//1 93//1
f 94//1 95//1 96//1
f 97//1 98//1 99//1
f 100//1 101//1 102//1
f 103//1 104//1 105//1
f 106//1 107//1 108//1
f 109//1 110//1 111//1
f 112//1 113//1 114//1
f 115//1 116//1 117//1
f 118//1 119//1 120//1
f 121//1 122//1 123//1
f 124//1 125//1 126//1
f 127//1 128//1 129//1
f 130//1 131//1 132//1
f 133//1 134//1 135//1
f 136//1 137//1 138//1
f 139//1 140//1 141//1
f 142//1 143//1 144//1
f 145//1 146//1 147//1
f 148//1 149//1 150//1
f 151//1 152//1 153//1
f 154//1 155//1 156//1
f 157//1 158//1 159//1
f 160//1 161//1 162//1
f 163//1 164//1 165//1
f 166//1 167//1 168//1
f 169//1 170//1 171//1
f 172//1 173//1 174//1
f 175//1 176//1 177//1
