v -121 8 -10
v -120 11 -10
v -120 11 9
v -121 8 -10
v -120 11 9
v -121 8 9
v -120 11 -10
v -118 13 -10
v -118 13 9
v -120 11 -10
v -118 13 9
v -120 11 9
v -118 13 -10
v -116 14 -10
v -116 14 9
v -118 13 -10
v -116 14 9
v -118 13 9
v -106 14 -10
v -104 13 -10
v -104 13 9
v -106 14 -10
v -104 13 9
v -106 14 9
v -104 13 -10
v -102 11 -10
v -102 11 9
v -104 13 -10
v -102 11 9
v -104 13 9
v -102 11 -10
v -101 8 -10
v -101 8 9
v -102 11 -10
v -101 8 9
v -102 11 9
f 1 2 3
f 4 5 6
f 7 8 9
f 10 11 12
f 13 14 15
f 16 17 18
f 19 20 21
f 22 23 24
f 25 26 27
f 28 29 30
f 31 32 33
f 34 35 36
