v -155.0 0.0 -1.0976
v -155.0 0.0 0.878
v -153.0 1.9537 0.878
v -155.0 0.0 0.878
v -155.0 0.0 2.8537
v -153.0 2.5623 2.8537
v -155.0 0.0 0.878
v -153.0 2.5623 2.8537
v -153.0 1.9537 0.878
v -155.0 0.0 2.8537
v -155.0 0.0 4.8293
v -153.0 2.6983 4.8293
v -155.0 0.0 2.8537
v -153.0 2.6983 4.8293
v -153.0 2.5623 2.8537
v -155.0 0.0 4.8293
v -155.0 0.0 6.8049
v -153.0 2.4582 6.8049
v -155.0 0.0 4.8293
v -153.0 2.4582 6.8049
v -153.0 2.6983 4.8293
v -155.0 0.0 6.8049
v -155.0 0.0 8.7805
v -153.0 1.8973 8.7805
v -155.0 0.0 6.8049
v -153.0 1.8973 8.7805
v -153.0 2.4582 6.8049
v -155.0 0.0 8.7805
v -153.0 0.8533 10.7561
v -153.0 1.8973 8.7805
v -155.0 0.0 12.7317
v -155.0 0.0 14.7073
v -153.0 2.4353 14.7073
v -155.0 0.0 12.7317
v -153.0 2.4353 14.7073
v -153.0 1.3718 12.7317
v -155.0 0.0 14.7073
v -155.0 0.0 16.6829
v -153.0 2.9991 16.6829
v -155.0 0.0 14.7073
v -153.0 2.9991 16.6829
v -153.0 2.4353 14.7073
v -155.0 0.0 16.6829
v -155.0 0.0 18.6585
v -153.0 3.1091 18.6585
v -155.0 0.0 16.6829
v -153.0 3.1091 18.6585
v -153.0 2.9991 16.6829
v -155.0 0.0 18.6585
v -155.0 0.0 20.6341
v -153.0 2.7375 20.6341
v -155.0 0.0 18.6585
v -153.0 2.7375 20.6341
v -153.0 3.1091 18.6585
v -155.0 0.0 20.6341
v -155.0 0.0 22.6098
v -153.0 1.8537 22.6098
v -155.0 0.0 20.6341
v -153.0 1.8537 22.6098
v -153.0 2.7375 20.6341
v -155.0 0.0 22.6098
v -153.0 0.0 24.5854
v -153.0 1.8537 22.6098
v -155.0 0.0 26.561
v -155.0 0.0 28.5366
v -153.0 2.2582 28.5366
v -155.0 0.0 26.561
v -153.0 2.2582 28.5366
v -153.0 1.6257 26.561
v -155.0 0.0 28.5366
v -155.0 0.0 30.5122
v -153.0 2.5772 30.5122
v -155.0 0.0 28.5366
v -153.0 2.5772 30.5122
v -153.0 2.2582 28.5366
v -155.0 0.0 30.5122
v -155.0 0.0 32.4878
v -153.0 2.5942 32.4878
v -155.0 0.0 30.5122
v -153.0 2.5942 32.4878
v -153.0 2.5772 30.5122
v -155.0 0.0 32.4878
v -155.0 0.0 34.4634
v -153.0 2.2045 34.4634
v -155.0 0.0 32.4878
v -153.0 2.2045 34.4634
v -153.0 2.5942 32.4878
v -155.0 0.0 34.4634
v -153.0 1.2071 36.439
v -153.0 2.2045 34.4634
v -155.0 0.0 38.4146
v -155.0 0.0 40.3902
v -153.0 2.0346 40.3902
v -155.0 0.0 40.3902
v -155.0 0.0 42.3659
v -153.0 2.4161 42.3659
v -155.0 0.0 40.3902
v -153.0 2.4161 42.3659
v -153.0 2.0346 40.3902
v -155.0 0.0 42.3659
v -155.0 0.0 44.3415
v -153.0 2.4885 44.3415
v -155.0 0.0 42.3659
v -153.0 2.4885 44.3415
v -153.0 2.4161 42.3659
v -155.0 0.0 44.3415
v -155.0 0.0 46.3171
v -153.0 2.3108 46.3171
v -155.0 0.0 44.3415
v -153.0 2.3108 46.3171
v -153.0 2.4885 44.3415
v -155.0 0.0 46.3171
v -155.0 0.0 48.2927
v -153.0 1.7775 48.2927
v -155.0 0.0 46.3171
v -153.0 1.7775 48.2927
v -153.0 2.3108 46.3171
v -155.0 0.0 48.2927
v -153.0 0.3587 50.2683
v -153.0 1.7775 48.2927
v -155.0 0.0 52.2439
v -155.0 0.0 54.2195
v -153.0 1.9535 54.2195
v -155.0 0.0 54.2195
v -155.0 0.0 56.1951
v -153.0 2.3776 56.1951
v -155.0 0.0 54.2195
v -153.0 2.3776 56.1951
v -153.0 1.9535 54.2195
v -155.0 0.0 56.1951
v -155.0 0.0 58.1707
v -153.0 2.413 58.1707
v -155.0 0.0 56.1951
v -153.0 2.413 58.1707
v -153.0 2.3776 56.1951
v -155.0 0.0 58.1707
v -155.0 0.0 60.1463
v -153.0 2.1701 60.1463
v -155.0 0.0 58.1707
v -153.0 2.1701 60.1463
v -153.0 2.413 58.1707
v -155.0 0.0 60.1463
v -153.0 1.6507 62.122
v -153.0 2.1701 60.1463
v -155.0 0.0 62.122
v -153.0 0.5203 64.0976
v -153.0 1.6507 62.122
v -153.0 0.0 -5.0488
v -153.0 0.0 -3.0732
v -151.0 2.8736 -3.0732
v -153.0 0.0 -5.0488
v -151.0 2.8736 -3.0732
v -151.0 0.9084 -5.0488
v -153.0 0.0 -3.0732
v -153.0 0.5853 -1.0976
v -151.0 4.0299 -1.0976
v -153.0 0.0 -3.0732
v -151.0 4.0299 -1.0976
v -151.0 2.8736 -3.0732
v -153.0 0.5853 -1.0976
v -153.0 1.9537 0.878
v -151.0 4.6799 0.878
v -153.0 0.5853 -1.0976
v -151.0 4.6799 0.878
v -151.0 4.0299 -1.0976
v -153.0 1.9537 0.878
v -153.0 2.5623 2.8537
v -151.0 4.9209 2.8537
v -153.0 1.9537 0.878
v -151.0 4.9209 2.8537
v -151.0 4.6799 0.878
v -153.0 2.5623 2.8537
v -153.0 2.6983 4.8293
v -151.0 4.8872 4.8293
v -153.0 2.5623 2.8537
v -151.0 4.8872 4.8293
v -151.0 4.9209 2.8537
v -153.0 2.6983 4.8293
v -153.0 2.4582 6.8049
v -151.0 4.7058 6.8049
v -153.0 2.6983 4.8293
v -151.0 4.7058 6.8049
v -151.0 4.8872 4.8293
v -153.0 2.4582 6.8049
v -153.0 1.8973 8.7805
v -151.0 4.4161 8.7805
v -153.0 2.4582 6.8049
v -151.0 4.4161 8.7805
v -151.0 4.7058 6.8049
v -153.0 1.8973 8.7805
v -153.0 0.8533 10.7561
v -151.0 3.9308 10.7561
v -153.0 1.8973 8.7805
v -151.0 3.9308 10.7561
v -151.0 4.4161 8.7805
v -153.0 0.8533 10.7561
v -153.0 1.3718 12.7317
v -151.0 4.8126 12.7317
v -153.0 0.8533 10.7561
v -151.0 4.8126 12.7317
v -151.0 3.9308 10.7561
v -153.0 1.3718 12.7317
v -153.0 2.4353 14.7073
v -151.0 5.6022 14.7073
v -153.0 1.3718 12.7317
v -151.0 5.6022 14.7073
v -151.0 4.8126 12.7317
v -153.0 2.4353 14.7073
v -153.0 2.9991 16.6829
v -151.0 5.9369 16.6829
v -153.0 2.4353 14.7073
v -151.0 5.9369 16.6829
v -151.0 5.6022 14.7073
v -153.0 2.9991 16.6829
v -153.0 3.1091 18.6585
v -151.0 5.8226 18.6585
v -153.0 2.9991 16.6829
v -151.0 5.8226 18.6585
v -151.0 5.9369 16.6829
v -153.0 3.1091 18.6585
v -153.0 2.7375 20.6341
v -151.0 5.3633 20.6341
v -153.0 3.1091 18.6585
v -151.0 5.3633 20.6341
v -151.0 5.8226 18.6585
v -153.0 2.7375 20.6341
v -153.0 1.8537 22.6098
v -151.0 4.6879 22.6098
v -153.0 2.7375 20.6341
v -151.0 4.6879 22.6098
v -151.0 5.3633 20.6341
v -153.0 1.8537 22.6098
v -153.0 0.0 24.5854
v -151.0 3.8307 24.5854
v -153.0 1.8537 22.6098
v -151.0 3.8307 24.5854
v -151.0 4.6879 22.6098
v -153.0 0.0 24.5854
v -153.0 1.6257 26.561
v -151.0 4.294 26.561
v -153.0 0.0 24.5854
v -151.0 4.294 26.561
v -151.0 3.8307 24.5854
v -153.0 1.6257 26.561
v -153.0 2.2582 28.5366
v -151.0 4.9219 28.5366
v -153.0 1.6257 26.561
v -151.0 4.9219 28.5366
v -151.0 4.294 26.561
v -153.0 2.2582 28.5366
v -153.0 2.5772 30.5122
v -151.0 5.2895 30.5122
v -153.0 2.2582 28.5366
v -151.0 5.2895 30.5122
v -151.0 4.9219 28.5366
v -153.0 2.5772 30.5122
v -153.0 2.5942 32.4878
v -151.0 5.289 32.4878
v -153.0 2.5772 30.5122
v -151.0 5.289 32.4878
v -151.0 5.2895 30.5122
v -153.0 2.5942 32.4878
v -153.0 2.2045 34.4634
v -151.0 4.8794 34.4634
v -153.0 2.5942 32.4878
v -151.0 4.8794 34.4634
v -151.0 5.289 32.4878
v -153.0 2.2045 34.4634
v -153.0 1.2071 36.439
v -151.0 4.1114 36.439
v -153.0 2.2045 34.4634
v -151.0 4.1114 36.439
v -151.0 4.8794 34.4634
v -153.0 1.2071 36.439
v -153.0 1.0702 38.4146
v -151.0 3.902 38.4146
v -153.0 1.2071 36.439
v -151.0 3.902 38.4146
v -151.0 4.1114 36.439
v -153.0 1.0702 38.4146
v -153.0 2.0346 40.3902
v -151.0 4.4053 40.3902
v -153.0 1.0702 38.4146
v -151.0 4.4053 40.3902
v -151.0 3.902 38.4146
v -153.0 2.0346 40.3902
v -153.0 2.4161 42.3659
v -151.0 4.7618 42.3659
v -153.0 2.0346 40.3902
v -151.0 4.7618 42.3659
v -151.0 4.4053 40.3902
v -153.0 2.4161 42.3659
v -153.0 2.4885 44.3415
v -151.0 4.9976 44.3415
v -153.0 2.4161 42.3659
v -151.0 4.9976 44.3415
v -151.0 4.7618 42.3659
v -153.0 2.4885 44.3415
v -153.0 2.3108 46.3171
v -151.0 5.0216 46.3171
v -153.0 2.4885 44.3415
v -151.0 5.0216 46.3171
v -151.0 4.9976 44.3415
v -153.0 2.3108 46.3171
v -153.0 1.7775 48.2927
v -151.0 4.7005 48.2927
v -153.0 2.3108 46.3171
v -151.0 4.7005 48.2927
v -151.0 5.0216 46.3171
v -153.0 1.7775 48.2927
v -153.0 0.3587 50.2683
v -151.0 3.942 50.2683
v -153.0 1.7775 48.2927
v -151.0 3.942 50.2683
v -151.0 4.7005 48.2927
v -153.0 0.3587 50.2683
v -153.0 0.8915 52.2439
v -151.0 3.821 52.2439
v -153.0 0.3587 50.2683
v -151.0 3.821 52.2439
v -151.0 3.942 50.2683
v -153.0 0.8915 52.2439
v -153.0 1.9535 54.2195
v -151.0 4.2768 54.2195
v -153.0 0.8915 52.2439
v -151.0 4.2768 54.2195
v -151.0 3.821 52.2439
v -153.0 1.9535 54.2195
v -153.0 2.3776 56.1951
v -151.0 4.4609 56.1951
v -153.0 1.9535 54.2195
v -151.0 4.4609 56.1951
v -151.0 4.2768 54.2195
v -153.0 2.3776 56.1951
v -153.0 2.413 58.1707
v -151.0 4.5058 58.1707
v -153.0 2.3776 56.1951
v -151.0 4.5058 58.1707
v -151.0 4.4609 56.1951
v -153.0 2.413 58.1707
v -153.0 2.1701 60.1463
v -151.0 4.4549 60.1463
v -153.0 2.413 58.1707
v -151.0 4.4549 60.1463
v -151.0 4.5058 58.1707
v -153.0 2.1701 60.1463
v -153.0 1.6507 62.122
v -151.0 4.2387 62.122
v -153.0 2.1701 60.1463
v -151.0 4.2387 62.122
v -151.0 4.4549 60.1463
v -153.0 1.6507 62.122
v -153.0 0.5203 64.0976
v -151.0 3.7136 64.0976
v -153.0 1.6507 62.122
v -151.0 3.7136 64.0976
v -151.0 4.2387 62.122
v -153.0 0.5203 64.0976
v -153.0 0.0 66.0732
v -151.0 2.7154 66.0732
v -153.0 0.5203 64.0976
v -151.0 2.7154 66.0732
v -151.0 3.7136 64.0976
v -153.0 0.0 66.0732
v -151.0 0.8771 68.0488
v -151.0 2.7154 66.0732
v -151.0 0.0 -7.0244
v -151.0 0.9084 -5.0488
v -149.0 3.4283 -5.0488
v -151.0 0.0 -7.0244
v -149.0 3.4283 -5.0488
v -149.0 1.2653 -7.0244
v -151.0 0.9084 -5.0488
v -151.0 2.8736 -3.0732
v -149.0 4.7291 -3.0732
v -151.0 0.9084 -5.0488
v -149.0 4.7291 -3.0732
v -149.0 3.4283 -5.0488
v -151.0 2.8736 -3.0732
v -151.0 4.0299 -1.0976
v -149.0 5.5034 -1.0976
v -151.0 2.8736 -3.0732
v -149.0 5.5034 -1.0976
v -149.0 4.7291 -3.0732
v -151.0 4.8872 4.8293
v -151.0 4.7058 6.8049
v -149.0 6.3788 6.8049
v -151.0 4.7058 6.8049
v -151.0 4.4161 8.7805
v -149.0 6.28 8.7805
v -151.0 4.7058 6.8049
v -149.0 6.28 8.7805
v -149.0 6.3788 6.8049
v -151.0 4.4161 8.7805
v -151.0 3.9308 10.7561
v -149.0 5.8427 10.7561
v -151.0 4.4161 8.7805
v -149.0 5.8427 10.7561
v -149.0 6.28 8.7805
v -151.0 3.9308 10.7561
v -151.0 4.8126 12.7317
v -149.0 6.8126 12.7317
v -151.0 3.9308 10.7561
v -149.0 6.8126 12.7317
v -149.0 5.8427 10.7561
v -151.0 4.8126 12.7317
v -151.0 5.6022 14.7073
v -149.0 7.2936 14.7073
v -151.0 4.8126 12.7317
v -149.0 7.2936 14.7073
v -149.0 6.8126 12.7317
v -151.0 5.6022 14.7073
v -149.0 7.3476 16.6829
v -149.0 7.2936 14.7073
v -151.0 5.3633 20.6341
v -151.0 4.6879 22.6098
v -149.0 6.4216 22.6098
v -151.0 4.6879 22.6098
v -151.0 3.8307 24.5854
v -149.0 5.8679 24.5854
v -151.0 4.6879 22.6098
v -149.0 5.8679 24.5854
v -149.0 6.4216 22.6098
v -151.0 3.8307 24.5854
v -151.0 4.294 26.561
v -149.0 6.1928 26.561
v -151.0 3.8307 24.5854
v -149.0 6.1928 26.561
v -149.0 5.8679 24.5854
v -151.0 4.294 26.561
v -151.0 4.9219 28.5366
v -149.0 6.777 28.5366
v -151.0 4.294 26.561
v -149.0 6.777 28.5366
v -149.0 6.1928 26.561
v -151.0 4.9219 28.5366
v -151.0 5.2895 30.5122
v -149.0 6.9345 30.5122
v -151.0 4.9219 28.5366
v -149.0 6.9345 30.5122
v -149.0 6.777 28.5366
v -151.0 5.2895 30.5122
v -149.0 6.6708 32.4878
v -149.0 6.9345 30.5122
v -151.0 3.902 38.4146
v -151.0 4.4053 40.3902
v -149.0 6.0341 40.3902
v -151.0 4.4053 40.3902
v -151.0 4.7618 42.3659
v -149.0 6.6052 42.3659
v -151.0 4.4053 40.3902
v -149.0 6.6052 42.3659
v -149.0 6.0341 40.3902
v -151.0 4.7618 42.3659
v -151.0 4.9976 44.3415
v -149.0 6.9093 44.3415
v -151.0 4.7618 42.3659
v -149.0 6.9093 44.3415
v -149.0 6.6052 42.3659
v -151.0 4.9976 44.3415
v -151.0 5.0216 46.3171
v -149.0 6.808 46.3171
v -151.0 4.9976 44.3415
v -149.0 6.808 46.3171
v -149.0 6.9093 44.3415
v -151.0 5.0216 46.3171
v -149.0 6.2718 48.2927
v -149.0 6.808 46.3171
v -151.0 4.7005 48.2927
v -149.0 5.3893 50.2683
v -149.0 6.2718 48.2927
v -151.0 4.5058 58.1707
v -151.0 4.4549 60.1463
v -149.0 6.2273 60.1463
v -151.0 4.4549 60.1463
v -151.0 4.2387 62.122
v -149.0 6.0002 62.122
v -151.0 4.4549 60.1463
v -149.0 6.0002 62.122
v -149.0 6.2273 60.1463
v -151.0 4.2387 62.122
v -151.0 3.7136 64.0976
v -149.0 5.3682 64.0976
v -151.0 4.2387 62.122
v -149.0 5.3682 64.0976
v -149.0 6.0002 62.122
v -151.0 3.7136 64.0976
v -151.0 2.7154 66.0732
v -149.0 4.3533 66.0732
v -151.0 3.7136 64.0976
v -149.0 4.3533 66.0732
v -149.0 5.3682 64.0976
v -151.0 2.7154 66.0732
v -151.0 0.8771 68.0488
v -149.0 3.0037 68.0488
v -151.0 2.7154 66.0732
v -149.0 3.0037 68.0488
v -149.0 4.3533 66.0732
v -151.0 0.8771 68.0488
v -149.0 1.0904 70.0244
v -149.0 3.0037 68.0488
v -149.0 0.0 -9.0
v -149.0 1.2653 -7.0244
v -147.0 2.798 -7.0244
v -149.0 0.0 -9.0
v -147.0 2.798 -7.0244
v -147.0 0.0 -9.0
v -149.0 1.2653 -7.0244
v -149.0 3.4283 -5.0488
v -147.0 4.3998 -5.0488
v -149.0 1.2653 -7.0244
v -147.0 4.3998 -5.0488
v -147.0 2.798 -7.0244
v -149.0 3.0037 68.0488
v -149.0 1.0904 70.0244
v -147.0 2.387 70.0244
v -149.0 1.0904 70.0244
v -147.0 0.0 72.0
v -147.0 2.387 70.0244
v -147.0 0.0 -9.0
v -147.0 2.798 -7.0244
v -145.0 3.0495 -7.0244
v -147.0 0.0 -9.0
v -145.0 3.0495 -7.0244
v -145.0 0.0 -9.0
v -147.0 2.387 70.0244
v -147.0 0.0 72.0
v -145.0 0.0 72.0
v -147.0 2.387 70.0244
v -145.0 0.0 72.0
v -145.0 2.9131 70.0244
v -145.0 0.0 -9.0
v -145.0 3.0495 -7.0244
v -143.0 2.5233 -7.0244
v -145.0 0.0 -9.0
v -143.0 2.5233 -7.0244
v -143.0 0.0 -9.0
v -145.0 3.0495 -7.0244
v -143.0 4.0865 -5.0488
v -143.0 2.5233 -7.0244
v -145.0 2.9131 70.0244
v -145.0 0.0 72.0
v -143.0 0.0 72.0
v -145.0 2.9131 70.0244
v -143.0 0.0 72.0
v -143.0 2.6341 70.0244
v -143.0 0.0 -9.0
v -143.0 2.5233 -7.0244
v -141.0 1.1789 -7.0244
v -143.0 2.5233 -7.0244
v -143.0 4.0865 -5.0488
v -141.0 3.2656 -5.0488
v -143.0 2.5233 -7.0244
v -141.0 3.2656 -5.0488
v -141.0 1.1789 -7.0244
v -143.0 4.0865 -5.0488
v -141.0 4.7125 -3.0732
v -141.0 3.2656 -5.0488
v -143.0 8.6611 20.6341
v -143.0 7.8688 22.6098
v -141.0 6.4092 22.6098
v -143.0 8.6611 20.6341
v -141.0 6.4092 22.6098
v -141.0 7.14 20.6341
v -143.0 7.8688 22.6098
v -141.0 5.58 24.5854
v -141.0 6.4092 22.6098
v -143.0 4.1879 68.0488
v -143.0 2.6341 70.0244
v -141.0 1.1681 70.0244
v -143.0 4.1879 68.0488
v -141.0 1.1681 70.0244
v -141.0 3.1994 68.0488
v -143.0 2.6341 70.0244
v -143.0 0.0 72.0
v -141.0 0.0 72.0
v -143.0 2.6341 70.0244
v -141.0 0.0 72.0
v -141.0 1.1681 70.0244
v -141.0 0.0 -9.0
v -141.0 1.1789 -7.0244
v -139.0 0.0 -7.0244
v -141.0 1.1789 -7.0244
v -141.0 3.2656 -5.0488
v -139.0 0.9428 -5.0488
v -141.0 3.2656 -5.0488
v -141.0 4.7125 -3.0732
v -139.0 2.8814 -3.0732
v -141.0 3.2656 -5.0488
v -139.0 2.8814 -3.0732
v -139.0 0.9428 -5.0488
v -141.0 4.7125 -3.0732
v -141.0 5.7463 -1.0976
v -139.0 3.899 -1.0976
v -141.0 4.7125 -3.0732
v -139.0 3.899 -1.0976
v -139.0 2.8814 -3.0732
v -141.0 5.7463 -1.0976
v -141.0 6.3412 0.878
v -139.0 4.4365 0.878
v -141.0 5.7463 -1.0976
v -139.0 4.4365 0.878
v -139.0 3.899 -1.0976
v -141.0 6.3412 0.878
v -141.0 6.5248 2.8537
v -139.0 4.6946 2.8537
v -141.0 6.3412 0.878
v -139.0 4.6946 2.8537
v -139.0 4.4365 0.878
v -141.0 6.5248 2.8537
v -139.0 4.8135 4.8293
v -139.0 4.6946 2.8537
v -141.0 5.4711 10.7561
v -141.0 6.5977 12.7317
v -139.0 4.9318 12.7317
v -141.0 6.5977 12.7317
v -141.0 7.4148 14.7073
v -139.0 5.5322 14.7073
v -141.0 6.5977 12.7317
v -139.0 5.5322 14.7073
v -139.0 4.9318 12.7317
v -141.0 7.4148 14.7073
v -141.0 7.7818 16.6829
v -139.0 5.6817 16.6829
v -141.0 7.4148 14.7073
v -139.0 5.6817 16.6829
v -139.0 5.5322 14.7073
v -141.0 7.7818 16.6829
v -141.0 7.6565 18.6585
v -139.0 5.5145 18.6585
v -141.0 7.7818 16.6829
v -139.0 5.5145 18.6585
v -139.0 5.6817 16.6829
v -141.0 7.6565 18.6585
v -141.0 7.14 20.6341
v -139.0 5.1703 20.6341
v -141.0 7.6565 18.6585
v -139.0 5.1703 20.6341
v -139.0 5.5145 18.6585
v -141.0 7.14 20.6341
v -141.0 6.4092 22.6098
v -139.0 4.695 22.6098
v -141.0 7.14 20.6341
v -139.0 4.695 22.6098
v -139.0 5.1703 20.6341
v -141.0 6.4092 22.6098
v -141.0 5.58 24.5854
v -139.0 3.9822 24.5854
v -141.0 6.4092 22.6098
v -139.0 3.9822 24.5854
v -139.0 4.695 22.6098
v -141.0 5.58 24.5854
v -139.0 4.5348 26.561
v -139.0 3.9822 24.5854
v -141.0 6.8451 30.5122
v -141.0 6.9098 32.4878
v -139.0 5.1486 32.4878
v -141.0 6.9098 32.4878
v -141.0 6.534 34.4634
v -139.0 4.6352 34.4634
v -141.0 6.9098 32.4878
v -139.0 4.6352 34.4634
v -139.0 5.1486 32.4878
v -141.0 6.534 34.4634
v -141.0 5.7725 36.439
v -139.0 3.9087 36.439
v -141.0 6.534 34.4634
v -139.0 3.9087 36.439
v -139.0 4.6352 34.4634
v -141.0 5.7725 36.439
v -141.0 5.4999 38.4146
v -139.0 3.8145 38.4146
v -141.0 5.7725 36.439
v -139.0 3.8145 38.4146
v -139.0 3.9087 36.439
v -141.0 5.4999 38.4146
v -139.0 4.4856 40.3902
v -139.0 3.8145 38.4146
v -141.0 6.3164 48.2927
v -141.0 5.6724 50.2683
v -139.0 3.7906 50.2683
v -141.0 6.3164 48.2927
v -139.0 3.7906 50.2683
v -139.0 4.6751 48.2927
v -141.0 5.6724 50.2683
v -141.0 5.4141 52.2439
v -139.0 3.6183 52.2439
v -141.0 5.6724 50.2683
v -139.0 3.6183 52.2439
v -139.0 3.7906 50.2683
v -141.0 5.4141 52.2439
v -141.0 5.7785 54.2195
v -139.0 4.1006 54.2195
v -141.0 5.4141 52.2439
v -139.0 4.1006 54.2195
v -139.0 3.6183 52.2439
v -141.0 5.7785 54.2195
v -139.0 4.432 56.1951
v -139.0 4.1006 54.2195
v -141.0 5.2503 64.0976
v -141.0 4.4706 66.0732
v -139.0 2.6608 66.0732
v -141.0 5.2503 64.0976
v -139.0 2.6608 66.0732
v -139.0 3.7771 64.0976
v -141.0 4.4706 66.0732
v -141.0 3.1994 68.0488
v -139.0 0.8357 68.0488
v -141.0 4.4706 66.0732
v -139.0 0.8357 68.0488
v -139.0 2.6608 66.0732
v -141.0 3.1994 68.0488
v -141.0 1.1681 70.0244
v -139.0 0.0 70.0244
v -141.0 3.1994 68.0488
v -139.0 0.0 70.0244
v -139.0 0.8357 68.0488
v -139.0 0.9428 -5.0488
v -139.0 2.8814 -3.0732
v -137.0 0.0 -3.0732
v -139.0 2.8814 -3.0732
v -139.0 3.899 -1.0976
v -137.0 0.5465 -1.0976
v -139.0 2.8814 -3.0732
v -137.0 0.5465 -1.0976
v -137.0 0.0 -3.0732
v -139.0 3.899 -1.0976
v -139.0 4.4365 0.878
v -137.0 1.7549 0.878
v -139.0 3.899 -1.0976
v -137.0 1.7549 0.878
v -137.0 0.5465 -1.0976
v -139.0 4.4365 0.878
v -139.0 4.6946 2.8537
v -137.0 2.3396 2.8537
v -139.0 4.4365 0.878
v -137.0 2.3396 2.8537
v -137.0 1.7549 0.878
v -139.0 4.6946 2.8537
v -139.0 4.8135 4.8293
v -137.0 2.6222 4.8293
v -139.0 4.6946 2.8537
v -137.0 2.6222 4.8293
v -137.0 2.3396 2.8537
v -139.0 4.8135 4.8293
v -139.0 4.8267 6.8049
v -137.0 2.5789 6.8049
v -139.0 4.8135 4.8293
v -137.0 2.5789 6.8049
v -137.0 2.6222 4.8293
v -139.0 4.8267 6.8049
v -139.0 4.6498 8.7805
v -137.0 2.0979 8.7805
v -139.0 4.8267 6.8049
v -137.0 2.0979 8.7805
v -137.0 2.5789 6.8049
v -139.0 4.6498 8.7805
v -139.0 4.1337 10.7561
v -137.0 0.9451 10.7561
v -139.0 4.6498 8.7805
v -137.0 0.9451 10.7561
v -137.0 2.0979 8.7805
v -139.0 4.1337 10.7561
v -139.0 4.9318 12.7317
v -137.0 1.4439 12.7317
v -139.0 4.1337 10.7561
v -137.0 1.4439 12.7317
v -137.0 0.9451 10.7561
v -139.0 4.9318 12.7317
v -139.0 5.5322 14.7073
v -137.0 2.3718 14.7073
v -139.0 4.9318 12.7317
v -137.0 2.3718 14.7073
v -137.0 1.4439 12.7317
v -139.0 5.5322 14.7073
v -139.0 5.6817 16.6829
v -137.0 2.7402 16.6829
v -139.0 5.5322 14.7073
v -137.0 2.7402 16.6829
v -137.0 2.3718 14.7073
v -139.0 5.6817 16.6829
v -139.0 5.5145 18.6585
v -137.0 2.7924 18.6585
v -139.0 5.6817 16.6829
v -137.0 2.7924 18.6585
v -137.0 2.7402 16.6829
v -139.0 5.5145 18.6585
v -139.0 5.1703 20.6341
v -137.0 2.5529 20.6341
v -139.0 5.5145 18.6585
v -137.0 2.5529 20.6341
v -137.0 2.7924 18.6585
v -139.0 5.1703 20.6341
v -139.0 4.695 22.6098
v -137.0 1.8589 22.6098
v -139.0 5.1703 20.6341
v -137.0 1.8589 22.6098
v -137.0 2.5529 20.6341
v -139.0 4.695 22.6098
v -139.0 3.9822 24.5854
v -137.0 0.0 24.5854
v -139.0 4.695 22.6098
v -137.0 0.0 24.5854
v -137.0 1.8589 22.6098
v -139.0 3.9822 24.5854
v -139.0 4.5348 26.561
v -137.0 1.8113 26.561
v -139.0 3.9822 24.5854
v -137.0 1.8113 26.561
v -137.0 0.0 24.5854
v -139.0 4.5348 26.561
v -139.0 5.1342 28.5366
v -137.0 2.4635 28.5366
v -139.0 4.5348 26.561
v -137.0 2.4635 28.5366
v -137.0 1.8113 26.561
v -139.0 5.1342 28.5366
v -139.0 5.3422 30.5122
v -137.0 2.6315 30.5122
v -139.0 5.1342 28.5366
v -137.0 2.6315 30.5122
v -137.0 2.4635 28.5366
v -139.0 5.3422 30.5122
v -139.0 5.1486 32.4878
v -137.0 2.4524 32.4878
v -139.0 5.3422 30.5122
v -137.0 2.4524 32.4878
v -137.0 2.6315 30.5122
v -139.0 5.1486 32.4878
v -139.0 4.6352 34.4634
v -137.0 1.9868 34.4634
v -139.0 5.1486 32.4878
v -137.0 1.9868 34.4634
v -137.0 2.4524 32.4878
v -139.0 4.6352 34.4634
v -139.0 3.9087 36.439
v -137.0 1.0941 36.439
v -139.0 4.6352 34.4634
v -137.0 1.0941 36.439
v -137.0 1.9868 34.4634
v -139.0 3.9087 36.439
v -139.0 3.8145 38.4146
v -137.0 1.0254 38.4146
v -139.0 3.9087 36.439
v -137.0 1.0254 38.4146
v -137.0 1.0941 36.439
v -139.0 3.8145 38.4146
v -139.0 4.4856 40.3902
v -137.0 2.105 40.3902
v -139.0 3.8145 38.4146
v -137.0 2.105 40.3902
v -137.0 1.0254 38.4146
v -139.0 4.4856 40.3902
v -139.0 4.9985 42.3659
v -137.0 2.6539 42.3659
v -139.0 4.4856 40.3902
v -137.0 2.6539 42.3659
v -137.0 2.105 40.3902
v -139.0 4.9985 42.3659
v -139.0 5.2683 44.3415
v -137.0 2.7676 44.3415
v -139.0 4.9985 42.3659
v -137.0 2.7676 44.3415
v -137.0 2.6539 42.3659
v -139.0 5.2683 44.3415
v -139.0 5.1785 46.3171
v -137.0 2.4638 46.3171
v -139.0 5.2683 44.3415
v -137.0 2.4638 46.3171
v -137.0 2.7676 44.3415
v -139.0 5.1785 46.3171
v -139.0 4.6751 48.2927
v -137.0 1.7574 48.2927
v -139.0 5.1785 46.3171
v -137.0 1.7574 48.2927
v -137.0 2.4638 46.3171
v -139.0 4.6751 48.2927
v -139.0 3.7906 50.2683
v -137.0 0.3308 50.2683
v -139.0 4.6751 48.2927
v -137.0 0.3308 50.2683
v -137.0 1.7574 48.2927
v -139.0 3.7906 50.2683
v -139.0 3.6183 52.2439
v -137.0 0.7998 52.2439
v -139.0 3.7906 50.2683
v -137.0 0.7998 52.2439
v -137.0 0.3308 50.2683
v -139.0 3.6183 52.2439
v -139.0 4.1006 54.2195
v -137.0 1.8021 54.2195
v -139.0 3.6183 52.2439
v -137.0 1.8021 54.2195
v -137.0 0.7998 52.2439
v -139.0 4.1006 54.2195
v -139.0 4.432 56.1951
v -137.0 2.3488 56.1951
v -139.0 4.1006 54.2195
v -137.0 2.3488 56.1951
v -137.0 1.8021 54.2195
v -139.0 4.432 56.1951
v -139.0 4.6562 58.1707
v -137.0 2.5682 58.1707
v -139.0 4.432 56.1951
v -137.0 2.5682 58.1707
v -137.0 2.3488 56.1951
v -139.0 4.6562 58.1707
v -139.0 4.7009 60.1463
v -137.0 2.412 60.1463
v -139.0 4.6562 58.1707
v -137.0 2.412 60.1463
v -137.0 2.5682 58.1707
v -139.0 4.7009 60.1463
v -139.0 4.4406 62.122
v -137.0 1.8156 62.122
v -139.0 4.7009 60.1463
v -137.0 1.8156 62.122
v -137.0 2.412 60.1463
v -139.0 4.4406 62.122
v -139.0 3.7771 64.0976
v -137.0 0.5391 64.0976
v -139.0 4.4406 62.122
v -137.0 0.5391 64.0976
v -137.0 1.8156 62.122
v -139.0 3.7771 64.0976
v -139.0 2.6608 66.0732
v -137.0 0.0 66.0732
v -139.0 3.7771 64.0976
v -137.0 0.0 66.0732
v -137.0 0.5391 64.0976
v -139.0 2.6608 66.0732
v -139.0 0.8357 68.0488
v -137.0 0.0 68.0488
v -139.0 2.6608 66.0732
v -137.0 0.0 68.0488
v -137.0 0.0 66.0732
v -137.0 0.5465 -1.0976
v -137.0 1.7549 0.878
v -135.0 0.0 0.878
v -137.0 1.7549 0.878
v -137.0 2.3396 2.8537
v -135.0 0.0 2.8537
v -137.0 1.7549 0.878
v -135.0 0.0 2.8537
v -135.0 0.0 0.878
v -137.0 2.3396 2.8537
v -137.0 2.6222 4.8293
v -135.0 0.0 4.8293
v -137.0 2.3396 2.8537
v -135.0 0.0 4.8293
v -135.0 0.0 2.8537
v -137.0 2.6222 4.8293
v -137.0 2.5789 6.8049
v -135.0 0.0 6.8049
v -137.0 2.6222 4.8293
v -135.0 0.0 6.8049
v -135.0 0.0 4.8293
v -137.0 2.5789 6.8049
v -137.0 2.0979 8.7805
v -135.0 0.0 8.7805
v -137.0 2.5789 6.8049
v -135.0 0.0 8.7805
v -135.0 0.0 6.8049
v -137.0 2.0979 8.7805
v -135.0 0.0 10.7561
v -135.0 0.0 8.7805
v -137.0 1.4439 12.7317
v -137.0 2.3718 14.7073
v -135.0 0.0 14.7073
v -137.0 2.3718 14.7073
v -137.0 2.7402 16.6829
v -135.0 0.0 16.6829
v -137.0 2.3718 14.7073
v -135.0 0.0 16.6829
v -135.0 0.0 14.7073
v -137.0 2.7402 16.6829
v -137.0 2.7924 18.6585
v -135.0 0.0 18.6585
v -137.0 2.7402 16.6829
v -135.0 0.0 18.6585
v -135.0 0.0 16.6829
v -137.0 2.7924 18.6585
v -137.0 2.5529 20.6341
v -135.0 0.0 20.6341
v -137.0 2.7924 18.6585
v -135.0 0.0 20.6341
v -135.0 0.0 18.6585
v -137.0 2.5529 20.6341
v -137.0 1.8589 22.6098
v -135.0 0.0 22.6098
v -137.0 2.5529 20.6341
v -135.0 0.0 22.6098
v -135.0 0.0 20.6341
v -137.0 1.8589 22.6098
v -137.0 0.0 24.5854
v -135.0 0.0 24.5854
v -137.0 1.8589 22.6098
v -135.0 0.0 24.5854
v -135.0 0.0 22.6098
v -137.0 0.0 24.5854
v -137.0 1.8113 26.561
v -135.0 0.0 26.561
v -137.0 1.8113 26.561
v -137.0 2.4635 28.5366
v -135.0 0.0 28.5366
v -137.0 1.8113 26.561
v -135.0 0.0 28.5366
v -135.0 0.0 26.561
v -137.0 2.4635 28.5366
v -137.0 2.6315 30.5122
v -135.0 0.0 30.5122
v -137.0 2.4635 28.5366
v -135.0 0.0 30.5122
v -135.0 0.0 28.5366
v -137.0 2.6315 30.5122
v -137.0 2.4524 32.4878
v -135.0 0.0 32.4878
v -137.0 2.6315 30.5122
v -135.0 0.0 32.4878
v -135.0 0.0 30.5122
v -137.0 2.4524 32.4878
v -137.0 1.9868 34.4634
v -135.0 0.0 34.4634
v -137.0 2.4524 32.4878
v -135.0 0.0 34.4634
v -135.0 0.0 32.4878
v -137.0 1.9868 34.4634
v -135.0 0.0 36.439
v -135.0 0.0 34.4634
v -137.0 1.0254 38.4146
v -137.0 2.105 40.3902
v -135.0 0.0 40.3902
v -137.0 2.105 40.3902
v -137.0 2.6539 42.3659
v -135.0 0.0 42.3659
v -137.0 2.105 40.3902
v -135.0 0.0 42.3659
v -135.0 0.0 40.3902
v -137.0 2.6539 42.3659
v -137.0 2.7676 44.3415
v -135.0 0.0 44.3415
v -137.0 2.6539 42.3659
v -135.0 0.0 44.3415
v -135.0 0.0 42.3659
v -137.0 2.7676 44.3415
v -137.0 2.4638 46.3171
v -135.0 0.0 46.3171
v -137.0 2.7676 44.3415
v -135.0 0.0 46.3171
v -135.0 0.0 44.3415
v -137.0 2.4638 46.3171
v -137.0 1.7574 48.2927
v -135.0 0.0 48.2927
v -137.0 2.4638 46.3171
v -135.0 0.0 48.2927
v -135.0 0.0 46.3171
v -137.0 1.7574 48.2927
v -135.0 0.0 50.2683
v -135.0 0.0 48.2927
v -137.0 0.7998 52.2439
v -137.0 1.8021 54.2195
v -135.0 0.0 54.2195
v -137.0 1.8021 54.2195
v -137.0 2.3488 56.1951
v -135.0 0.0 56.1951
v -137.0 1.8021 54.2195
v -135.0 0.0 56.1951
v -135.0 0.0 54.2195
v -137.0 2.3488 56.1951
v -137.0 2.5682 58.1707
v -135.0 0.0 58.1707
v -137.0 2.3488 56.1951
v -135.0 0.0 58.1707
v -135.0 0.0 56.1951
v -137.0 2.5682 58.1707
v -137.0 2.412 60.1463
v -135.0 0.0 60.1463
v -137.0 2.5682 58.1707
v -135.0 0.0 60.1463
v -135.0 0.0 58.1707
v -137.0 2.412 60.1463
v -137.0 1.8156 62.122
v -135.0 0.0 62.122
v -137.0 2.412 60.1463
v -135.0 0.0 62.122
v -135.0 0.0 60.1463
v -137.0 1.8156 62.122
v -135.0 0.0 64.0976
v -135.0 0.0 62.122
vn -0.69878 0.71534 0.0
vn -0.78829 0.6153 0.0
vn -0.68241 0.69858 -0.21519
vn -0.80338 0.59547 0.0
vn -0.78759 0.61475 -0.04232
vn -0.77569 0.63111 0.0
vn -0.80128 0.59392 0.07218
vn -0.68823 0.72549 0.0
vn -0.76353 0.62121 0.17637
vn -0.64263 0.67741 0.35798
vn -0.77279 0.63466 0.0
vn -0.51698 0.75373 -0.40574
vn -0.83197 0.55482 0.0
vn -0.76042 0.6245 -0.17822
vn -0.84102 0.54101 0.0
vn -0.83158 0.55455 -0.03088
vn -0.80746 0.58992 0.0
vn -0.8367 0.53823 0.10124
vn -0.67977 0.73342 0.0
vn -0.78073 0.5704 0.25516
vn -0.55999 0.60418 0.5669
vn -0.74861 0.66301 0.0
vn -0.61215 0.75309 -0.24111
vn -0.79002 0.61308 0.0
vn -0.74435 0.65925 -0.10645
vn -0.79197 0.61057 0.0
vn -0.79001 0.61307 -0.00528
vn -0.74062 0.67192 0.0
vn -0.78628 0.60619 0.11957
vn -0.70137 0.63631 0.32124
vn -0.71314 0.70102 0.0
vn -0.77032 0.63766 0.0
vn -0.7067 0.69468 -0.13414
vn -0.77946 0.62645 0.0
vn -0.77011 0.63748 -0.02336
vn -0.75613 0.65443 0.0
vn -0.77823 0.62546 0.05626
vn -0.66431 0.74746 0.0
vn -0.7446 0.64445 0.17396
vn -0.58531 0.65857 0.47296
vn -0.69874 0.71537 0.0
vn -0.76526 0.64372 0.0
vn -0.69065 0.70708 -0.15179
vn -0.76992 0.63814 0.0
vn -0.76521 0.64368 -0.01153
vn -0.73534 0.6777 0.0
vn -0.76756 0.63619 0.07822
vn -0.72394 0.66719 0.1754
vn -0.58236 0.70559 0.40373
vn -0.82077 0.57125 0.0
vn -0.30651 0.67484 -0.67129
vn -0.85539 0.49665 -0.14714
vn -0.77842 0.54177 -0.31709
vn -0.7461 0.54736 -0.37913
vn -0.85323 0.4954 -0.16299
vn -0.74801 0.63428 -0.19539
vn -0.8042 0.58998 -0.07197
vn -0.73745 0.67381 -0.04638
vn -0.76266 0.64671 0.01103
vn -0.74463 0.6626 0.08053
vn -0.73683 0.67324 0.06182
vn -0.77122 0.61237 0.17386
vn -0.74353 0.66162 0.09702
vn -0.80575 0.52364 0.27672
vn -0.77416 0.61471 0.151
vn -0.85714 0.49822 -0.13076
vn -0.81474 0.52948 -0.23633
vn -0.8126 0.51319 -0.27626
vn -0.84763 0.49269 -0.19692
vn -0.81617 0.55563 -0.15857
vn -0.84207 0.53179 -0.09009
vn -0.80453 0.59299 -0.03302
vn -0.82619 0.56245 0.03254
vn -0.7904 0.60203 0.11324
vn -0.79742 0.58775 0.13664
vn -0.79116 0.5583 0.24974
vn -0.77898 0.59333 0.20283
vn -0.8131 0.42452 0.39832
vn -0.79262 0.55933 0.24269
vn -0.71754 0.53783 -0.44257
vn -0.88128 0.46011 -0.1079
vn -0.7853 0.58963 -0.18877
vn -0.78602 0.58916 -0.18725
vn -0.80118 0.59077 -0.09539
vn -0.79473 0.59671 -0.11103
vn -0.803 0.59596 -0.00513
vn -0.80485 0.59348 0.00015
vn -0.79536 0.59468 0.1173
vn -0.79695 0.59147 0.12263
vn -0.79179 0.54525 0.27527
vn -0.78003 0.58322 0.22672
vn -0.81617 0.57643 0.03994
vn -0.82212 0.56614 0.06001
vn -0.72907 0.61507 -0.30025
vn -0.80814 0.57076 -0.14541
vn -0.75505 0.64377 -0.12431
vn -0.75921 0.6405 -0.11557
vn -0.78177 0.62315 -0.02284
vn -0.75868 0.64687 -0.07721
vn -0.80355 0.59285 0.05333
vn -0.78195 0.62329 -0.00757
vn -0.81588 0.55825 0.15069
vn -0.80097 0.59095 0.09605
vn -0.82417 0.46001 0.33036
vn -0.80656 0.55187 0.21188
vn -0.8165 0.55743 -0.15033
vn -0.87281 0.48715 0.02984
vn -0.71516 0.61564 -0.33094
vn -0.81898 0.55913 -0.129
vn -0.71354 0.68501 -0.14705
vn -0.75647 0.6512 -0.06068
vn -0.7229 0.69084 -0.01238
vn -0.72129 0.69245 -0.01574
vn -0.74999 0.6565 0.08072
vn -0.72284 0.69079 0.0178
vn -0.78123 0.60373 0.15872
vn -0.7505 0.65695 0.07189
vn -0.81092 0.50789 0.2906
vn -0.78101 0.60356 0.16042
vn -0.79553 0.58594 0.15431
vn -0.81857 0.51268 0.25904
vn -0.70496 0.51923 0.48315
vn -0.75311 0.59773 -0.27484
vn -0.39243 0.6203 -0.67914
vn -0.54953 0.59233 -0.58921
vn -0.7249 0.57534 -0.37882
vn -0.53657 0.72829 -0.42626
vn -0.65368 0.70459 -0.27615
vn -0.64003 0.76513 0.07025
vn -0.67789 0.72739 0.10666
vn -0.64115 0.76646 0.03833
vn -0.68036 0.71172 0.17483
vn -0.67301 0.72215 0.15985
vn -0.67432 0.67432 -0.30098
vn -0.65122 0.68122 -0.33444
vn -0.61762 0.73031 -0.29189
vn -0.69686 0.69686 -0.16966
vn -0.6456 0.76339 -0.02087
vn -0.63419 0.73161 0.2501
vn -0.68275 0.67028 0.29083
vn -0.6408 0.73923 0.20718
vn -0.67877 0.71495 -0.16766
vn -0.7089 0.69596 -0.11445
vn -0.66231 0.71404 -0.22694
vn -0.67321 0.70909 -0.20968
vn -0.62877 0.76447 -0.14224
vn -0.67889 0.73192 -0.05835
vn -0.63188 0.76825 0.10254
vn -0.61951 0.76069 -0.19379
vn -0.67185 0.72892 -0.13153
vn -0.61619 0.75662 -0.21871
vn -0.68841 0.72021 -0.08596
vn -0.67343 0.73064 -0.11247
vn -0.66613 0.74578 -0.00906
vn -0.69049 0.72239 0.03704
vn -0.65292 0.73099 0.1984
vn -0.58288 0.7419 0.33141
vn -0.66312 0.74827 0.01928
vn -0.65873 0.74792 0.08184
vn -0.6608 0.74565 0.08571
vn -0.62448 0.75484 0.20063
vn -0.64268 0.7297 0.23343
vn -0.59011 0.72057 0.36408
vn -0.5927 0.71642 0.36804
vn -0.61426 0.57769 0.53754
vn -0.56017 0.68401 0.46727
vn -0.607 0.57087 0.55286
vn -0.54223 0.70755 -0.45316
vn 0.0 0.57679 -0.81689
vn -0.31131 0.64089 -0.70168
vn -0.51151 0.66746 -0.54117
vn -0.42217 0.65119 0.63066
vn -0.38201 0.58924 0.71195
vn -0.07234 0.57528 -0.81475
vn 0.0 0.54372 -0.83927
vn 0.0 0.6376 0.77037
vn -0.14606 0.55526 0.81875
vn 0.14161 0.53824 -0.83081
vn 0.0 0.61647 -0.78738
vn 0.20207 0.76803 -0.6077
vn 0.0 0.56128 0.82763
vn 0.08341 0.59791 0.79721
vn 0.38282 0.56951 -0.7274
vn 0.3064 0.74649 -0.59066
vn 0.41951 0.62409 -0.65918
vn 0.31435 0.76587 -0.56091
vn 0.56082 0.76845 0.30817
vn 0.58071 0.76355 0.28243
vn 0.55829 0.76499 0.32108
vn 0.49922 0.68107 0.53566
vn 0.32579 0.65917 0.67776
vn 0.0 0.6 0.8
vn 0.53362 0.72799 0.43044
vn 0.45162 0.76617 -0.4572
vn 0.62397 0.53726 -0.56747
vn 0.59413 0.64894 -0.47527
vn 0.6382 0.5495 -0.53921
vn 0.63333 0.68568 -0.3588
vn 0.63126 0.68948 -0.35514
vn 0.67381 0.70752 -0.21305
vn 0.66535 0.72035 -0.19598
vn 0.67352 0.736 -0.0684
vn 0.68658 0.72093 -0.09418
vn 0.67443 0.737 -0.04436
vn 0.58621 0.70377 -0.40133
vn 0.6563 0.69722 -0.28837
vn 0.62324 0.74824 -0.22739
vn 0.71828 0.68405 -0.12707
vn 0.68437 0.72705 -0.05502
vn 0.73024 0.68183 0.04324
vn 0.72292 0.68847 0.05827
vn 0.68982 0.70044 0.18312
vn 0.72581 0.67769 0.11807
vn 0.62653 0.73099 0.27039
vn 0.6916 0.70224 0.16894
vn 0.5931 0.74239 0.3116
vn 0.62765 0.73229 0.26421
vn 0.60978 0.76327 -0.2135
vn 0.66068 0.75026 -0.02457
vn 0.68206 0.71841 0.13666
vn 0.64866 0.73661 0.19142
vn 0.65617 0.70412 0.2714
vn 0.66527 0.70073 0.25768
vn 0.64084 0.76047 0.10493
vn 0.68134 0.73113 0.03486
vn 0.6237 0.74012 -0.25142
vn 0.66673 0.7086 0.23099
vn 0.59949 0.73051 0.32706
vn 0.66496 0.74057 0.09683
vn 0.68388 0.72684 0.06339
vn 0.6364 0.75856 -0.13992
vn 0.65734 0.73209 -0.17872
vn 0.63748 0.75985 -0.12746
vn 0.64396 0.71164 0.28086
vn 0.53983 0.73287 0.4141
vn 0.70493 0.59647 0.3838
vn 0.55355 0.61173 0.56513
vn 0.37714 0.64573 0.66393
vn 0.7364 0.62309 0.26357
vn 0.71691 0.49761 -0.48829
vn 0.83036 0.49537 -0.25516
vn 0.81147 0.56325 -0.15581
vn 0.79121 0.5901 -0.16055
vn 0.81949 0.48889 -0.29903
vn 0.75951 0.64502 -0.08426
vn 0.78934 0.58871 -0.17423
vn 0.738 0.67358 -0.04054
vn 0.75897 0.64456 -0.0922
vn 0.74708 0.66472 -0.00444
vn 0.73853 0.67406 0.01477
vn 0.78588 0.61592 0.05515
vn 0.73749 0.65619 0.15976
vn 0.8391 0.52631 0.13749
vn 0.74056 0.5804 0.33868
vn 0.8505 0.48769 -0.19701
vn 0.83962 0.52664 -0.13297
vn 0.83407 0.52782 -0.16041
vn 0.84475 0.48439 -0.22751
vn 0.82621 0.56176 -0.04251
vn 0.84084 0.53211 -0.09923
vn 0.80486 0.59135 0.05005
vn 0.82686 0.56221 -0.01485
vn 0.79017 0.60379 0.10519
vn 0.8038 0.59057 0.07159
vn 0.80949 0.57085 0.13733
vn 0.77711 0.5938 0.20858
vn 0.88214 0.44304 0.15985
vn 0.71841 0.50662 0.47669
vn 0.79519 0.58395 -0.16334
vn 0.8264 0.41505 -0.38053
vn 0.78752 0.58975 -0.17893
vn 0.79105 0.58091 -0.19177
vn 0.80311 0.59255 -0.06239
vn 0.7994 0.59864 -0.05091
vn 0.80179 0.59476 0.05828
vn 0.80352 0.59285 0.05375
vn 0.7884 0.59538 0.15472
vn 0.79535 0.58998 0.13904
vn 0.79727 0.56653 0.20833
vn 0.76998 0.58147 0.26274
vn 0.81235 0.58251 0.02778
vn 0.81499 0.57912 0.02014
vn 0.74801 0.62842 -0.21347
vn 0.77434 0.55526 -0.30343
vn 0.75023 0.63996 -0.16614
vn 0.75372 0.63322 -0.17592
vn 0.77813 0.62233 -0.08499
vn 0.76027 0.64853 -0.03732
vn 0.80481 0.59292 0.02695
vn 0.77738 0.62173 0.09561
vn 0.81639 0.55961 0.14259
vn 0.78758 0.58023 0.20747
vn 0.84481 0.48836 0.21864
vn 0.76363 0.52345 0.37799
vn 0.8145 0.57797 0.05041
vn 0.85971 0.49697 -0.11798
vn 0.74489 0.64815 -0.15823
vn 0.78251 0.55527 -0.28171
vn 0.71655 0.68793 -0.1154
vn 0.74225 0.64585 -0.17872
vn 0.71995 0.6896 -0.07826
vn 0.71924 0.69052 -0.07669
vn 0.75295 0.65791 -0.01489
vn 0.72108 0.69069 0.05461
vn 0.79291 0.60412 0.07959
vn 0.7386 0.64538 0.19482
vn 0.83784 0.51751 0.1738
vn 0.74067 0.56432 0.36463
vn 0.75693 0.56895 0.32148
vn 0.84218 0.52018 0.14195
vn 0.29341 0.7022 0.64871
vn 0.79937 0.60085 0.0
vn 0.59925 0.68294 -0.41773
vn 0.74644 0.63809 -0.18884
vn 0.65955 0.75166 0.0
vn 0.79214 0.60418 -0.08643
vn 0.76012 0.64978 0.0
vn 0.79014 0.61278 0.01343
vn 0.79512 0.60645 0.0
vn 0.71379 0.68048 0.16568
vn 0.79021 0.61283 0.0
vn 0.72379 0.69002 0.0
vn 0.73168 0.61698 -0.28978
vn 0.8029 0.58601 -0.10928
vn 0.76448 0.64464 0.0
vn 0.81289 0.58222 -0.01538
vn 0.80774 0.58954 0.0
vn 0.785 0.61499 0.07455
vn 0.81299 0.58228 0.0
vn 0.65932 0.70937 0.24918
vn 0.78719 0.61671 0.0
vn 0.0 0.72829 0.68527
vn 0.6808 0.73247 0.0
vn 0.55521 0.61305 -0.56206
vn 0.76008 0.61707 -0.20371
vn 0.67128 0.74121 0.0
vn 0.7951 0.6043 -0.05139
vn 0.77636 0.63029 0.0
vn 0.7737 0.63097 0.0572
vn 0.79615 0.60509 0.0
vn 0.69511 0.69973 0.16491
vn 0.77496 0.632 0.0
vn 0.70476 0.70944 0.0
vn 0.67848 0.64464 -0.35227
vn 0.78768 0.5936 -0.16492
vn 0.72496 0.68879 0.0
vn 0.81006 0.58538 -0.03369
vn 0.79861 0.60184 0.0
vn 0.77278 0.6273 0.09646
vn 0.81052 0.58572 0.0
vn 0.63748 0.72548 0.25941
vn 0.7764 0.63024 0.0
vn 0.66008 0.7512 0.0
vn 0.62638 0.69517 -0.35269
vn 0.74941 0.63812 -0.17659
vn 0.6694 0.74291 0.0
vn 0.78715 0.613 -0.06808
vn 0.76138 0.64831 0.0
vn 0.76881 0.63749 0.0504
vn 0.78898 0.61442 0.0
vn 0.65596 0.72259 0.21813
vn 0.76979 0.6383 0.0
vn 0.67215 0.74042 0.0
f 1//1 2//1 3//1
f 4//2 5//2 6//2
f 7//3 8//3 9//3
f 10//4 11//4 12//4
f 13//5 14//5 15//5
f 16//6 17//6 18//6
f 19//7 20//7 21//7
f 22//8 23//8 24//8
f 25//9 26//9 27//9
f 28//10 29//10 30//10
f 31//11 32//11 33//11
f 34//12 35//12 36//12
f 37//13 38//13 39//13
f 40//14 41//14 42//14
f 43//15 44//15 45//15
f 46//16 47//16 48//16
f 49//17 50//17 51//17
f 52//18 53//18 54//18
f 55//19 56//19 57//19
f 58//20 59//20 60//20
f 61//21 62//21 63//21
f 64//22 65//22 66//22
f 67//23 68//23 69//23
f 70//24 71//24 72//24
f 73//25 74//25 75//25
f 76//26 77//26 78//26
f 79//27 80//27 81//27
f 82//28 83//28 84//28
f 85//29 86//29 87//29
f 88//30 89//30 90//30
f 91//31 92//31 93//31
f 94//32 95//32 96//32
f 97//33 98//33 99//33
f 100//34 101//34 102//34
f 103//35 104//35 105//35
f 106//36 107//36 108//36
f 109//37 110//37 111//37
f 112//38 113//38 114//38
f 115//39 116//39 117//39
f 118//40 119//40 120//40
f 121//41 122//41 123//41
f 124//42 125//42 126//42
f 127//43 128//43 129//43
f 130//44 131//44 132//44
f 133//45 134//45 135//45
f 136//46 137//46 138//46
f 139//47 140//47 141//47
f 142//48 143//48 144//48
f 145//49 146//49 147//49
f 148//50 149//50 150//50
f 151//51 152//51 153//51
f 154//52 155//52 156//52
f 157//53 158//53 159//53
f 160//54 161//54 162//54
f 163//55 164//55 165//55
f 166//56 167//56 168//56
f 169//57 170//57 171//57
f 172//58 173//58 174//58
f 175//59 176//59 177//59
f 178//60 179//60 180//60
f 181//61 182//61 183//61
f 184//62 185//62 186//62
f 187//63 188//63 189//63
f 190//64 191//64 192//64
f 193//65 194//65 195//65
f 196//66 197//66 198//66
f 199//67 200//67 201//67
f 202//68 203//68 204//68
f 205//69 206//69 207//69
f 208//70 209//70 210//70
f 211//71 212//71 213//71
f 214//72 215//72 216//72
f 217//73 218//73 219//73
f 220//74 221//74 222//74
f 223//75 224//75 225//75
f 226//76 227//76 228//76
f 229//77 230//77 231//77
f 232//78 233//78 234//78
f 235//79 236//79 237//79
f 238//80 239//80 240//80
f 241//81 242//81 243//81
f 244//82 245//82 246//82
f 247//83 248//83 249//83
f 250//84 251//84 252//84
f 253//85 254//85 255//85
f 256//86 257//86 258//86
f 259//87 260//87 261//87
f 262//88 263//88 264//88
f 265//89 266//89 267//89
f 268//90 269//90 270//90
f 271//91 272//91 273//91
f 274//92 275//92 276//92
f 277//93 278//93 279//93
f 280//94 281//94 282//94
f 283//95 284//95 285//95
f 286//96 287//96 288//96
f 289//97 290//97 291//97
f 292//98 293//98 294//98
f 295//99 296//99 297//99
f 298//100 299//100 300//100
f 301//101 302//101 303//101
f 304//102 305//102 306//102
f 307//103 308//103 309//103
f 310//104 311//104 312//104
f 313//105 314//105 315//105
f 316//106 317//106 318//106
f 319//107 320//107 321//107
f 322//108 323//108 324//108
f 325//109 326//109 327//109
f 328//110 329//110 330//110
f 331//111 332//111 333//111
f 334//112 335//112 336//112
f 337//113 338//113 339//113
f 340//114 341//114 342//114
f 343//115 344//115 345//115
f 346//116 347//116 348//116
f 349//117 350//117 351//117
f 352//118 353//118 354//118
f 355//119 356//119 357//119
f 358//120 359//120 360//120
f 361//121 362//121 363//121
f 364//122 365//122 366//122
f 367//123 368//123 369//123
f 370//124 371//124 372//124
f 373//125 374//125 375//125
f 376//126 377//126 378//126
f 379//127 380//127 381//127
f 382//128 383//128 384//128
f 385//129 386//129 387//129
f 388//130 389//130 390//130
f 391//131 392//131 393//131
f 394//132 395//132 396//132
f 397//133 398//133 399//133
f 400//134 401//134 402//134
f 403//135 404//135 405//135
f 406//136 407//136 408//136
f 409//137 410//137 411//137
f 412//138 413//138 414//138
f 415//139 416//139 417//139
f 418//140 419//140 420//140
f 421//141 422//141 423//141
f 424//142 425//142 426//142
f 427//143 428//143 429//143
f 430//144 431//144 432//144
f 433//145 434//145 435//145
f 436//146 437//146 438//146
f 439//147 440//147 441//147
f 442//148 443//148 444//148
f 445//149 446//149 447//149
f 448//150 449//150 450//150
f 451//151 452//151 453//151
f 454//152 455//152 456//152
f 457//153 458//153 459//153
f 460//154 461//154 462//154
f 463//155 464//155 465//155
f 466//156 467//156 468//156
f 469//157 470//157 471//157
f 472//158 473//158 474//158
f 475//159 476//159 477//159
f 478//160 479//160 480//160
f 481//161 482//161 483//161
f 484//162 485//162 486//162
f 487//163 488//163 489//163
f 490//164 491//164 492//164
f 493//165 494//165 495//165
f 496//166 497//166 498//166
f 499//167 500//167 501//167
f 502//168 503//168 504//168
f 505//169 506//169 507//169
f 508//170 509//170 510//170
f 511//171 512//171 513//171
f 514//172 515//172 516//172
f 517//173 518//173 519//173
f 520//174 521//174 522//174
f 523//175 524//175 525//175
f 526//176 527//176 528//176
f 529//177 530//177 531//177
f 532//178 533//178 534//178
f 535//179 536//179 537//179
f 538//180 539//180 540//180
f 541//181 542//181 543//181
f 544//182 545//182 546//182
f 547//183 548//183 549//183
f 550//184 551//184 552//184
f 553//185 554//185 555//185
f 556//186 557//186 558//186
f 559//187 560//187 561//187
f 562//188 563//188 564//188
f 565//189 566//189 567//189
f 568//190 569//190 570//190
f 571//191 572//191 573//191
f 574//192 575//192 576//192
f 577//193 578//193 579//193
f 580//194 581//194 582//194
f 583//195 584//195 585//195
f 586//196 587//196 588//196
f 589//197 590//197 591//197
f 592//198 593//198 594//198
f 595//199 596//199 597//199
f 598//200 599//200 600//200
f 601//201 602//201 603//201
f 604//202 605//202 606//202
f 607//203 608//203 609//203
f 610//204 611//204 612//204
f 613//205 614//205 615//205
f 616//206 617//206 618//206
f 619//207 620//207 621//207
f 622//208 623//208 624//208
f 625//209 626//209 627//209
f 628//210 629//210 630//210
f 631//211 632//211 633//211
f 634//212 635//212 636//212
f 637//213 638//213 639//213
f 640//214 641//214 642//214
f 643//215 644//215 645//215
f 646//216 647//216 648//216
f 649//217 650//217 651//217
f 652//218 653//218 654//218
f 655//219 656//219 657//219
f 658//220 659//220 660//220
f 661//221 662//221 663//221
f 664//222 665//222 666//222
f 667//223 668//223 669//223
f 670//224 671//224 672//224
f 673//225 674//225 675//225
f 676//226 677//226 678//226
f 679//227 680//227 681//227
f 682//228 683//228 684//228
f 685//229 686//229 687//229
f 688//230 689//230 690//230
f 691//231 692//231 693//231
f 694//232 695//232 696//232
f 697//233 698//233 699//233
f 700//234 701//234 702//234
f 703//235 704//235 705//235
f 706//236 707//236 708//236
f 709//237 710//237 711//237
f 712//238 713//238 714//238
f 715//239 716//239 717//239
f 718//240 719//240 720//240
f 721//241 722//241 723//241
f 724//242 725//242 726//242
f 727//243 728//243 729//243
f 730//244 731//244 732//244
f 733//245 734//245 735//245
f 736//246 737//246 738//246
f 739//247 740//247 741//247
f 742//248 743//248 744//248
f 745//249 746//249 747//249
f 748//250 749//250 750//250
f 751//251 752//251 753//251
f 754//252 755//252 756//252
f 757//253 758//253 759//253
f 760//254 761//254 762//254
f 763//255 764//255 765//255
f 766//256 767//256 768//256
f 769//257 770//257 771//257
f 772//258 773//258 774//258
f 775//259 776//259 777//259
f 778//260 779//260 780//260
f 781//261 782//261 783//261
f 784//262 785//262 786//262
f 787//263 788//263 789//263
f 790//264 791//264 792//264
f 793//265 794//265 795//265
f 796//266 797//266 798//266
f 799//267 800//267 801//267
f 802//268 803//268 804//268
f 805//269 806//269 807//269
f 808//270 809//270 810//270
f 811//271 812//271 813//271
f 814//272 815//272 816//272
f 817//273 818//273 819//273
f 820//274 821//274 822//274
f 823//275 824//275 825//275
f 826//276 827//276 828//276
f 829//277 830//277 831//277
f 832//278 833//278 834//278
f 835//279 836//279 837//279
f 838//280 839//280 840//280
f 841//281 842//281 843//281
f 844//282 845//282 846//282
f 847//283 848//283 849//283
f 850//284 851//284 852//284
f 853//285 854//285 855//285
f 856//286 857//286 858//286
f 859//287 860//287 861//287
f 862//288 863//288 864//288
f 865//289 866//289 867//289
f 868//290 869//290 870//290
f 871//291 872//291 873//291
f 874//292 875//292 876//292
f 877//293 878//293 879//293
f 880//294 881//294 882//294
f 883//295 884//295 885//295
f 886//296 887//296 888//296
f 889//297 890//297 891//297
f 892//298 893//298 894//298
f 895//299 896//299 897//299
f 898//300 899//300 900//300
f 901//301 902//301 903//301
f 904//302 905//302 906//302
f 907//303 908//303 909//303
f 910//304 911//304 912//304
f 913//305 914//305 915//305
f 916//306 917//306 918//306
f 919//307 920//307 921//307
f 922//308 923//308 924//308
f 925//309 926//309 927//309
f 928//310 929//310 930//310
f 931//311 932//311 933//311
f 934//312 935//312 936//312
f 937//313 938//313 939//313
f 940//314 941//314 942//314
f 943//315 944//315 945//315
f 946//316 947//316 948//316
f 949//317 950//317 951//317
f 952//318 953//318 954//318
f 955//319 956//319 957//319
f 958//320 959//320 960//320
f 961//321 962//321 963//321
f 964//322 965//322 966//322
f 967//323 968//323 969//323
f 970//324 971//324 972//324
f 973//325 974//325 975//325
f 976//326 977//326 978//326
f 979//327 980//327 981//327
f 982//328 983//328 984//328
f 985//329 986//329 987//329
f 988//330 989//330 990//330
f 991//331 992//331 993//331
f 994//332 995//332 996//332
f 997//333 998//333 999//333
f 1000//334 1001//334 1002//334
f 1003//335 1004//335 1005//335
f 1006//336 1007//336 1008//336
f 1009//337 1010//337 1011//337
f 1012//338 1013//338 1014//338
f 1015//339 1016//339 1017//339
f 1018//340 1019//340 1020//340
f 1021//341 1022//341 1023//341
f 1024//342 1025//342 1026//342
f 1027//343 1028//343 1029//343
f 1030//344 1031//344 1032//344
f 1033//345 1034//345 1035//345
f 1036//346 1037//346 1038//346
f 1039//347 1040//347 1041//347
f 1042//348 1043//348 1044//348
f 1045//349 1046//349 1047//349
f 1048//350 1049//350 1050//350
f 1051//351 1052//351 1053//351
f 1054//352 1055//352 1056//352
f 1057//353 1058//353 1059//353
f 1060//354 1061//354 1062//354
f 1063//355 1064//355 1065//355
f 1066//356 1067//356 1068//356
f 1069//357 1070//357 1071//357
f 1072//358 1073//358 1074//358
f 1075//359 1076//359 1077//359
f 1078//360 1079//360 1080//360
f 1081//361 1082//361 1083//361
f 1084//362 1085//362 1086//362
f 1087//363 1088//363 1089//363
